<svg xmlns="http://www.w3.org/2000/svg" xml:space="preserve" width="89.5" height="50" viewBox="0 0 89.5 50">
  <path fill="#0c0b0b" d="M.0013795 11.10623714h1.41735734L2.757343 13.38724277l1.33836989-2.28100563h1.41759306v5.54383515H4.38861096v-3.9437764l-1.23533013 2.04313274h-.79211136L1.12583864 12.7062959v3.9437764H.0013795v-5.54383515m7.06476675 0h1.1243713v5.54383515h-1.1243713v-5.54383515m2.68492507 0h1.4415274l2.4788152 3.96791631v-3.96791631h1.124695v5.54383515h-1.44152785l-2.4788152-3.98351823v3.98351823H9.75107132v-5.54383515m6.60559136 0h1.12469498v5.54383515H16.3566627v-5.54383515m3.00184608 4.02326049c.33255363.42776418.77624297.68124512 1.22761681.68124512.44354285 0 .71265333-.23758079.71265333-.64149716 0-.99036233-2.53425061-.7683839-2.53425061-2.61368382 0-.8790718.72068958-1.60771343 1.77408104-1.60771343.83147354 0 1.47294087.37241431 1.94029995.93471992l-.82364166.73658885c-.32487-.41981696-.68907174-.68919234-1.1088273-.68919234-.38813639 0-.64146733.25348094-.64146733.57820006 0 .98977155 2.53419227.76013843 2.53419227 2.63723295-.01560059 1.02951381-.82358289 1.66306374-1.8372891 1.66306374-.93436554 0-1.56803125-.3406197-2.05909035-.92647445l.81572295-.75248944m3.65149748-4.0232605h4.54582471v1.0218587h-1.710462v4.52197646h-1.12460684v-4.52197646h-1.71075587v-1.0218587m5.63127611-1.54412993h1.15640187l.89497459 1.06896924H29.6628494zm-.09509126 1.54412994h3.23103624v.95826905H29.6707975v1.28299432h1.78995005V14.30577H29.6707975v1.38603323h2.10642985v.95826906H28.5461911v-5.54383515m5.67072584.95826905v1.38603368h.63384247c.4751607 0 .75219076-.2531827.75219076-.7050868 0-.41951872-.27703007-.68094688-.75219076-.68094688zm-1.1246064-.95826905h1.69485879c1.21969765 0 1.97218271.625597 1.97218271 1.65511038 0 .66534453-.32472263 1.16435304-.88732077 1.43343589l1.74255178 2.45528888h-1.34628922l-1.47317596-2.24126337h-.57820093v2.24126337h-1.1246064v-5.54383515m5.22735974 0h3.2310358v.95826905h-2.1064294v1.28299432h1.78995004V14.30577h-1.78995005v1.38603323h2.1064294v.95826906h-3.23103579v-5.54383515m-37.19383164 9.0371811v3.50041601h1.06917125c1.02957434 0 1.77384622-.76809092 1.77384622-1.74991524 0-.99035663-.74427188-1.75050076-1.77384622-1.75050076zM.0013795 19.1218521h2.1775266c1.75833127 0 2.94629283 1.2750471 2.94629283 2.77206692 0 1.49672684-1.18796156 2.77177393-2.94629283 2.77177393H.0013795V19.1218521m6.2174549 0h3.2309187v.9582752H7.3433237v1.28298817h1.78962592v.9582752H7.3433237v1.38603323h2.1064294v.95826905H6.2188344V19.1218521m6.60535628 0h1.12472481v4.52198216h2.10642897v1.0218587h-3.23115378V19.1218521m2.99404491 2.28101133.71265289-2.28101133h1.14056312l-.91885047 2.28101133h-.93436554m4.98924914.86288482-.76014018-2.08288027-.76049325 2.08288027zm-1.49672772-3.14389615h1.47314613l2.09862823 5.54384085h-1.1958516l-.53050793-1.4416752h-2.21777125l-.5303904 1.4416752h-1.19599895L19.310757 19.1218521m8.1499827 4.16575484v-.93471992h-1.40987974v-1.02156615h2.53419183v2.36020288c-.51461042.68889367-1.37778996 1.13255844-2.41554837 1.13255844-1.79760429 0-3.02495619-1.34629141-3.02495619-2.93016317 0-1.5841643 1.19585072-2.93045001 2.94605675-2.93045001 1.00566907 0 1.82939933.45131332 2.3360612 1.12460551l-.88673174.68889367c-.31677453-.45131332-.81578173-.760138-1.44932946-.760138-1.0454131 0-1.78995005.81548787-1.78995005 1.87708883 0 1.06101587.78398668 1.87680198 1.8688495 1.87680198.52314754 0 .97446217-.18194407 1.29123626-.48311406m3.50894919-3.20747964v1.385735h.63354818c.47545542 0 .7524855-.2531827.7524855-.70478856 0-.41981696-.27703008-.68094644-.7524855-.68094644zm-1.12460683-.9582752h1.69485878c1.2196981 0 1.9721836.62560271 1.9721836 1.65511609 0 .66534497-.32501737 1.16435348-.88732078 1.43343018l1.74255178 2.45529458h-1.34628966l-1.47317596-2.24126336h-.57820093v2.24126336h-1.12460683V19.1218521m5.22765447 0h1.12460639v5.54384085h-1.1246064V19.1218521m6.60515059 3.88872477.88702604.68094688c-.5069566.68889367-1.33068643 1.13255844-2.3363555 1.13255844-1.75020603 0-2.94605719-1.34629141-2.94605719-2.93016317 0-1.5841643 1.19585116-2.93045001 2.94605719-2.93045001 1.00566907 0 1.8293989.45131332 2.3363555 1.12460551l-.88702604.68889367c-.31677453-.45131332-.815487-.760138-1.44932946-.760138-1.0454131 0-1.78995005.81548787-1.78995005 1.87708883 0 1.06101587.74453696 1.87680198 1.78995005 1.87680198.63384247 0 1.13255493-.30883037 1.44932946-.76014413m5.07691992-3.88872477h1.12460683v3.37382181c0 1.45727756-.85552399 2.32840828-2.24920928 2.32840828-1.3860363 0-2.24126731-.87113072-2.24126731-2.32840828v-3.3738218h1.1246077v3.46891394c0 .74424354.41981258 1.17995495 1.12460684 1.17995495.68889103 0 1.11665522-.4357114 1.11665522-1.17995495V19.1218521m2.52654197 0h1.1248963v4.52198216h2.10643116v1.0218587H49.281349V19.1218521m3.01023497 0h4.54582558v1.02156616h-1.71046464v4.5222747h-1.12490068v-4.5222747h-1.71046026V19.1218521m8.81491057 0h1.12460683v3.37382181c0 1.45727756-.85552399 2.32840828-2.24920928 2.32840828-1.3860363 0-2.24126643-.87113072-2.24126643-2.32840828v-3.3738218h1.12460683v3.46891394c0 .74424354.41981257 1.17995495 1.12460683 1.17995495.68889103 0 1.11665522-.4357114 1.11665522-1.17995495V19.1218521m3.65173651.9582752v1.385735h.63354555c.47515806 0 .75248637-.2531827.75248637-.70478856 0-.41981696-.27732831-.68094644-.75248637-.68094644zm-1.12490507-.9582752h1.69485966c1.21999546 0 1.97218798.62560271 1.97218798 1.65511609 0 .66534497-.32472658 1.16435348-.8870278 1.43343018l1.7425474 2.45529458h-1.34658089l-1.47317508-2.24126336h-.5779062v2.24126336h-1.12490507V19.1218521m5.2273615 0h3.23132745v.9582752H69.9852943v1.28298817h1.7902439v.9582752h-1.7902439v1.38603323h2.10672063v.95826905h-3.23132746V19.1218521M.00137951 27.13718065h3.230918v.95821072H1.12583864v1.28305265H2.9154647v.95829843H1.12583864v1.3859749H3.2322975v.95829845H.0013795v-5.54383515m4.07902489 0h4.54597194v1.02179992H6.91550205v4.52203523H5.79104303v-4.52203523H4.0804044v-1.02179992m8.72791815 1.02179992v3.50014715h1.06928897c1.0294568 0 1.77387622-.76809135 1.77387622-1.74985121 0-.99012813-.74441942-1.75029594-1.77387622-1.75029594zM11.683628 27.13718065h2.17811539c1.75809624 0 2.94605718 1.27504095 2.94605718 2.77209586 0 1.49672729-1.18796094 2.77173929-2.94605718 2.77173929H11.683628v-5.54383515m6.2174848 0h3.23124193v.95821072h-2.10654695v1.28305265h1.789979v.95829843h-1.789979v1.3859749h2.10654695v.95829845h-3.23124194v-5.54383515m6.61327544 0h1.12490112v4.52194707h2.1064294v1.02188808h-3.23133052v-5.54383515m2.99433876 2.28106352.71274148-2.28106352h1.14050435l-.91882108 2.28106352h-.93442475m4.99713935.86282649-.76013975-2.08287413-.76043448 2.08287413zm-1.49672817-3.14389001h1.4731764l2.09877472 5.54383515h-1.19614545l-.53050838-1.44164057H30.636723l-.53050794 1.44164057h-1.1958516l2.09877472-5.54383515m4.43542496 0h1.12490112v4.52194707h2.10642984v1.02188808h-3.23133096v-5.54383515m4.22169154 0h1.1246064v5.54383515h-1.1246064v-5.54383515m2.6849242 0h1.4178287l1.3386363 2.28106352 1.33804595-2.28106352h1.41782959v5.54383515H46.7389082v-3.94403956l-1.23559166 2.04342485h-.79193303l-1.23530395-2.04342485v3.94403956h-1.12490069v-5.54383515m7.06500103 0h3.23133623v.95821072h-2.10643116v1.28305265h1.78995005v.95829843h-1.78995005v1.3859749h2.10643116v.95829845H49.4161799v-5.54383515m4.53817222 0h1.44167565l2.47884108 3.96765316v-3.96765316h1.12460683v5.54383515h-1.44137741l-2.47884547-3.98348928v3.98348928h-1.12490068v-5.54383515m6.0354872 0h4.54611945v1.02179992h-1.7107585v4.52203523h-1.12460244v-4.52203523h-1.7107585v-1.02179992m7.90433495 3.14389-.76013975-2.08287412-.7604336 2.08287413zm-1.49672729-3.14389h1.47317947l2.0987734 5.54383515h-1.1961494l-.53050793-1.44164057h-2.21770985l-.53021408 1.44164057h-1.196145l2.0987734-5.54383515m3.31081724 0h4.5458212v1.02179992h-1.71045587v4.52203523h-1.12460683v-4.52203523h-1.7107585v-1.02179992m5.53618485 0h1.12460683v5.54383515h-1.12460683v-5.54383515m6.93782175 2.77209586c0-1.06166499-.7442453-1.8771239-1.78200282-1.8771239-1.04511705 0-1.78995005.81545891-1.78995005 1.8771239 0 1.0609865.744833 1.87679628 1.78995005 1.87679628 1.03775752 0 1.78200282-.81580979 1.78200282-1.87679628zm1.15640011 0c0 1.58377834-1.19614062 2.9300987-2.93840293 2.9300987-1.75020077 0-2.94575807-1.34632036-2.94575807-2.9300987 0-1.58422263 1.1955573-2.9304851 2.94575807-2.9304851 1.7422623 0 2.93840293 1.34626247 2.93840293 2.9304851m1.08545403-2.77209586h1.44167565l2.47884547 3.96765316v-3.96765316h1.12460245v5.54383515h-1.44137741l-2.47884986-3.98348928v3.98348928h-1.1248963v-5.54383515"/>
  <path fill="#29367a" d="M6.6467442 6.48651377c.00228066 0 .00346485-.0011842.00589024-.00232452.01966631-.01029367.03815282-.02181101.05437314-.03678442-.00228066 0-.00461833-.0011842-.00573235-.0011842-.01966631.01263136-.0358897.02531972-.05452533.04035015m2.71100267-.90386082c-.00585954.00467974-.01274977.0094165-.0185216.01415325.01036385-.00118419.0185216-.00407887.0185216-.01415325"/>
  <path fill="#0c0b0b" d="m1.60653463 49.91903043.04047865-.1266249c-.54234281-.10209464-.61076144-.10209464-.39526126-.69330762l.22024044-.60584868h.59810263c.27014073 0 .27473362.10892786.23413611.40333042h.15411827l.35822505-.98303483H2.6623681c-.13445195.23287297-.2410541.4033041-.5343055.4033041h-.59109575l.31406567-.85997127c.09729881-.27231963.15523697-.33025718.52152854-.33025718h.26092686c.37892178 0 .42411162.10186219.42411162.48575436h.15064464l.12638543-.66884754H1.08488793l-.04056637.12627403c.4358289.09037994.47630888.1309757.27240792.69298745l-.489204 1.33630914c-.20398928.55912584-.28851174.60407678-.79025702.69330762L0 49.91903043Zm3.121343-1.63921593c.07875164-.26413557.03827562-.49574102-.16571762-.49574102-.24105475 0-.30258403.18305809-.54705386.70917575v-.30267434c0-.2154961-.06841806-.40650141-.2643999-.40650141-.22942563 0-.4357412.3532743-.5956886.7044697h.10660214c.10901618-.15904098.2109079-.2526577.29325145-.2526577.09856488 0 .15064464.1507648 0 .48425877l-.4404511.97867526c-.08234352.1830537.00461964.30116999.18320488.30116999.11119447 0 .15994736-.02806967.20387174-.14605l.4325319-1.1451547c.12155746-.15055867.23172213-.2817756.37076698-.4289703zm1.98074966-.59006388-.17031007-.01263135-.19124216.18791327h-.04047733c-.92965554 0-1.73295415 1.04302936-1.73295415 1.80110774 0 .2121716.13100815.33384922.33511542.33384922.23990618 0 .47622077-.34176575.74059142-.70921085l-.01160067.13065992c-.03370553.3756818.08119546.57855093.27691253.57855093.22851297 0 .43585877-.35363395.59465765-.70482496h-.10545379c-.11016467.15868134-.21217379.25289016-.2932517.25289016-.08578793 0-.14719997-.15550157 0-.48484649zM4.99327852 49.3649703c0-.50198652.55879997-1.1826628.87286534-1.1826628.06818298 0 .13430502.00824547.19112461.0245171l-.32569454.86812902c-.1889457.22850902-.47757513.50518822-.61202752.50518822-.07748587 0-.12626789-.06474005-.12626789-.21514522m2.05850133-1.26833669h.37444673l-.5946581 1.62711966c-.05337315.13812908.01966632.27623184.162244.27623184.33847106 0 .88552475-.33384483 1.07688445-.7907269h-.10672044c-.15067315.15891378-.4404508.37085731-.68736387.41651877l.54475724-1.52914337h.5586526l.06959611-.23160107H7.908424l.20619714-.58650692H7.9001509l-.38825393.58650692-.46011711.06497251zm2.6612255 1.117221h-.13916327c-.17375387.20757958-.36155179.37132223-.55049749.37132223-.19124215 0-.28854083-.11511196-.28854083-.37132223 0-.10624807.01266205-.21194353.0335915-.30935843l1.12766862-.3706468c.22035785-.52288527-.04519217-.7497759-.35336773-.7497759-.53442366 0-1.14288895.89226455-1.14288895 1.67448284 0 .35030506.16801406.5414288.42885188.5414288.30599928 0 .62350932-.29681042.88434715-.7861305m-.38710572-1.12872957c.1506442 0 .2805037.11372601.21193827.40341375l-.70114213.16330406c.12294076-.32672654.32695987-.56671781.48920386-.56671781m2.5023968.19468946c.0776328-.26413557.03703442-.49574103-.16698338-.49574103-.23987723 0-.30140638.1830537-.54590547.70917576v-.30267435c0-.21550048-.06956672-.4065014-.26413556-.4065014-.22966076 0-.4371241.3532743-.59592386.7044653h.10557177c.1100467-.15903659.21217423-.25265331.29439993-.25265331.09738727 0 .1506442.15076043 0 .48425877l-.44045167.97867088c-.08222527.18305809.00346485.30116998.18305809.30116998.11019362 0 .15894624-.02806966.20401867-.14604998l.43241454-1.1451547c.12152806-.15055868.23172212-.28177122.36970734-.42896592zm.00806564 1.41900062c-.08107747.18305809.00355257.30116998.18305765.30116998.11019406 0 .15894625-.02806966.20401912-.14604998l.43241717-1.14516348c.19939639-.24474118.61190953-.50554786.77418247-.50554786.11831979 0 .10209771.09773946.02437237.24378944l-.66528445 1.27672689c-.06370762.1254714.02081103.27623622.1645694.27623622.3256647 0 .71288884-.29325346.86709526-.70482495h-.10545423c-.10671956.1507648-.2853023.3176302-.45216813.34648056l.57028178-1.15310192c.07301095-.14720348.11131202-.28530624.11131202-.3953525 0-.18759309-.10671956-.3091172-.30255418-.3091172-.28038615 0-.5655709.31727057-.904131.70917575v-.30267434c0-.2154961-.0706259-.40650142-.26531273-.40650142-.12179297 0-.24117195.10498056-.35121864.25609624v.04021857c.21193826-.0117103.30602823.30623569.15526604.63973404zm3.59085165-2.49447238c.14719953 0 .26875698-.11811628.26875698-.26908285 0-.14720347-.12155745-.26876267-.26875698-.26876267-.15064464 0-.26896355.1215592-.26896355.26876267 0 .15096657.11831891.26908285.26896355.26908285m-.11475713.81453788c.04519217-.15040517-.0569345-.23480715-.13339276-.23480715-.32672478 0-.71380111.29313066-.86815533.70446532h.10557177c.10660246-.15076043.2850966-.31774864.45196287-.34683583l-.62342117 1.62276887c-.0569051.15099726.05658406.23551327.13560062.23551327.30829573 0 .67217335-.29681041.82637977-.70482057h-.10557177c-.10660202.15076043-.28624438.31763022-.4532282.34647619zm.50645574.07775298h.3744463l-.59580545 1.62711966c-.05222712.13812908.02081103.27623184.16339178.27623184.33855922 0 .88549493-.33384483 1.07685463-.7907269h-.10671956c-.1506442.15891378-.43927407.37085731-.68848271.41651877l.54602257-1.52914337h.55853506l.06959655-.23160107h-.5423437l.20861158-.58650692h-.21691361l-.38707677.58650692-.46011667.06497251zm2.43639185-.5214116.795115-.741855v-.08590634h-.4277041l-.48920387.82776133zm.22483365 1.6386326h-.13916327c-.17490253.20757958-.36258203.37132223-.54923128.37132223-.19250836 0-.28980703-.11511196-.28980703-.37132223 0-.10624807.01266205-.21194353.03232836-.30935843l1.12905192-.3706468c.22024031-.52288527-.0441571-.7497759-.35466331-.7497759-.53451181 0-1.14056268.89226455-1.14056268 1.67448284 0 .35030506.16583559.5414288.42770366.5414288.30611682 0 .62362686-.29681042.88434714-.7861305m-.38710659-1.12872957c.15064464 0 .28047519.11372601.21090803.40341375l-.70011057.1632909c.12179297-.32672654.32578226-.56671342.48920342-.56671342m-15.6796703-6.43609663.79523235-.5459024v-.08590502h-.48104919l-.44045106.63180742Zm-.32554736 1.70831425c.26875772 0 .27220209.10925504.23172212.40365322h.15535451l.35810812-.98299975h-.154089c-.13557066.23172124-.2410249.40341375-.5342763.40341375h-.59121324l.29796184-.81937113c.09726956-.27267313.1539709-.32592963.521411-.32592963h.25966078c.38018729 0 .4254958.10212666.4254958.48104963h.15064408l.12615035-.66861334H1.08512358l-.04174792.12606176c.43574062.0907352.47645624.131302.27358566.69330937l-.489204 1.33769464c-.203901.55738903-.28865911.60269523-.79040438.69160152l-.03712213.1266249H2.5026277l.44872402-.70921085H2.7796584c-.2850966.26876268-.64332226.52600364-1.1451851.52600364-.66398912 0-.60269492-.0279381-.3824843-.6350192l.23646181-.64826853zm2.84887605 1.74431885c0-.26160491-.23183966-.3555769-.61202712-.46895203-.3255473-.09777016-.47274697-.12649771-.47274697-.23231159 0-.0855467.0693309-.18743958.2086114-.26163122.53312855-.02806967.8797543-.50910175.8797543-.9123984 0-.08567081-.01633743-.15871072-.04406939-.22459812h.45196243l.06956673-.23196071h-.71748131c-.08693615-.05333237-.18791502-.08095775-.28980703-.08095775-.56680777 0-.93309934.49691513-.93309934.90056834 0 .3049651.19595198.49727302.43126584.54222396-.2642829.11834873-.41033407.25610062-.41033407.41951872 0 .0930334.03244371.1590366.10889803.22024162-.61076144.17869852-.85178633.38271676-.85178633.67237818 0 .28141596.3708553.40008925.81130636.40008925.74648004 0 1.36998866-.40329972 1.36998866-.74221025m-.8854951-1.117221c-.13327478 0-.18664926-.11328303-.18664926-.24461355 0-.36270133.19598185-.89697806.50198096-.89697806.134452 0 .18653175.11475801.18653175.24459207 0 .36272457-.19468656.89699954-.50186345.89699954m-.8426011 1.31688405c0-.21668028.20746347-.3512217.50530777-.46841695.09729885.04865262.24449851.10097185.4404511.16721627.30947265.10153763.42770384.1422518.42770384.23610976 0 .1992771-.33847155.35038839-.7985591.35038839-.38722399 0-.57490362-.08154677-.57490362-.28529747m4.14932693-2.70641854-.1726359-.01263135-.19124172.18755801h-.04059575c-.92953668 0-1.73165856 1.043057-1.73165856 1.80137791 0 .21193476.12983054.3347571.33384965.3347571.24102459 0 .47633875-.34294555.74300585-.70920646l-.01274977.13073886c-.03256081.37468181.0810481.5784676.27703007.5784676.22712922 0 .43571141-.35478305.59442257-.70564512H7.052018c-.11119491.15870765-.21332245.25253929-.29439993.25253929-.0846397 0-.14605174-.15397529 0-.48426316zM5.64143126 44.2697643c0-.50080365.55856445-1.18230578.87156975-1.18230578.07074433 0 .13457037.0094735.1924202.02438552l-.32569498.868272c-.18779704.22815815-.47760407.50542944-.6119091.50542944-.07763324 0-.12638587-.0649769-.12638587-.21576802m2.15924424.27705639 1.1382671-2.97908466-.03715283-.0450869-.71380155.08096344v.0860217l.14019352.10533756c.12511966.09868242.0846397.19262195-.0301442.49403184l-.88790892 2.34023658c-.06485628.12626964.01966631.2767099.16342117.2767099.3257827 0 .67240888-.29325346.82637977-.7056495h-.1054538c-.10648447.15158935-.32554717.31877931-.49379675.34651126m2.16993132-2.43765893c.14605174 0 .26760963-.11811453.26760963-.26760919 0-.14720172-.12155789-.27025826-.26760963-.27025826-.15076174 0-.27014072.12305654-.27014072.27025826 0 .14949466.11937898.2676092.27014072.2676092m-.11490362.81604399c.04530883-.15067008-.05667178-.2363409-.13430546-.2363409-.32695987 0-.71403663.29313504-.86812551.70473593h.10533581c.10557177-.1506464.28633341-.31798284.45205103-.34674811l-.6223611 1.62300087c-.05796387.15043588.05667134.23610538.13327478.23610538.31062113 0 .67343912-.29763935.827528-.7056495h-.10545424c-.10660201.15158935-.28506676.31877931-.45205014.34651126zm.50427684.07657756h.3766252l-.5956879 1.6274657c-.0533736.1377826.02092944.2767099.16353914.2767099.3383237 0 .88319848-.33476147 1.07547088-.791319h-.10545336c-.15064464.15986114-.44045167.37088802-.68966075.41595738l.546023-1.52881398h.55856401l.06956629-.23196071h-.54131213l.2064331-.5865043h-.21561846l-.3872237.5865043-.46126532.06497514zm2.43857075-.52165152.79523254-.74070589v-.08693395h-.42894048l-.48899729.82763984zm.22392051 1.6388633h-.13928563c-.17490298.20849623-.36167021.37100645-.5493497.37100645-.19112418 0-.28854127-.11361198-.28854127-.37100644 0-.10533581.01036384-.21193476.03129768-.30932028l1.13011199-.37100469c.21894516-.52164581-.04648469-.74980528-.35592952-.74980528-.53315745 0-1.14056268.89229393-1.14056268 1.67451179 0 .35157258.166954.54258228.42767383.54258228.3048515 0 .62362687-.29763935.8845831-.78696382m-.38722412-1.12893088c.15067403 0 .28165236.11360584.21208563.40353656l-.7012895.16318388c.12294164-.32684189.32696075-.56672044.48920387-.56672044m-10.07456452-6.2360042H1.07708632l-.04047865.12650649c.43562307.0901738.47622058.13076956.27220208.69310456l-.48104918 1.33619203c-.203901.55876795-.28865912.60293075-.7904044.69333832l-.03712213.1260328h2.25789752l.48920399-.87262717h-.170546c-.27806048.30590674-.60384287.68954277-1.10455775.68954277-.38018786 0-.42414145-.06485847-.22024045-.63628672l.48104914-1.33619203c.19942622-.55853375.28865912-.60293075.79052192-.69310456zm1.6423375.2610773c.1460225 0 .26769766-.11858864.26769766-.269346 0-.14720216-.12167517-.26876136-.26769766-.26876136-.1518218 0-.26887526.1215592-.26887526.26876136 0 .15075736.11705345.269346.26887526.269346m-.11466871.81462867c.0439232-.1507578-.05693463-.23666238-.13454024-.23666238-.32557656 0-.71288885.29439818-.86815503.70623282h.10671974c.10545362-.15099726.284979-.31762582.4520801-.3468595l-.62480447 1.62160835c-.05564229.15079245.0579697.23669747.13560048.23669747.30944348 0 .67217318-.2979889.8275277-.7050868h-.10545367c-.10660215.15099727-.2850966.31762584-.45311052.34686522zm2.21721165.21668029c0-.33028657-.12155745-.45334267-.35006997-.45334267-.2850966 0-.55511978.30175462-.82293554.6690813l.68056399-1.78962856-.03727564-.04415095-.71391865.08130818v.08567125l.13904485.10533713c.12638543.09865304.08578792.1992771-.02770125.49368097l-.73485117 1.89072015c-.05222713.13892731-.11720069.30119938-.11720069.34650864 0 .19607233.26440065.37915673.50542524.37915673.55397198 0 1.47891664-.9983385 1.47891664-1.76433647m-1.28431841 1.43484551c-.11007564 0-.2676092-.10177623-.2676092-.19250529 0-.02760037.04851974-.15397396.10901645-.31268469l.18423527-.48575699c.19468638-.23310718.49241257-.48105006.65951437-.48105006.10189158 0 .17952482.06485277.17952482.2170022 0 .44400951-.41595738 1.25499483-.86468171 1.25499483m2.7679161-.4577053h-.13789706c-.17616874.20873305-.36396577.37180028-.55049748.37180028-.1913597 0-.28980704-.11452425-.28980704-.37180029 0-.105688.01266205-.21114223.03232836-.3094387L7.972368 38.3444216c.22021137-.52256335-.04415709-.75130789-.35466287-.75130789-.53451225 0-1.14044558.89403074-1.14044558 1.67510432 0 .3509818.16560007.54257482.42755673.54257482.30602823 0 .62365625-.2979889.88434715-.78719627m-.38707677-1.12872825c.15064464 0 .28162298.11443653.21090803.4044782l-.70014171.16223698c.12179297-.32590068.32581208-.56672088.48923325-.56672088m2.5023968.19575084c.07760385-.26440442.0370037-.49750546-.1668654-.49750546-.2411724 0-.30155376.18423043-.54602302.70979416v-.30176076c0-.21529435-.06959654-.4080334-.26531318-.4080334-.22851296 0-.43585877.35466024-.59465765.70623282h.10545335c.11004713-.16021376.21217423-.25289015.29325215-.25289015.09853506 0 .1506442.15076306 0 .48461096l-.44045167.97796475c-.08107748.18306116.00461833.30176076.18435324.30176076.10889803 0 .15879888-.02795125.20272352-.14604999l.4324141-1.14668713c.12282365-.14949422.23287035-.28024054.37203318-.42743656zm.2932517-.1830901h.29784373l-.59571728 1.6259995c-.05219774.13913213.02196451.27726428.16456895.27726428.33729389 0 .88319935-.3338479 1.0744415-.79075761h-.10442398c-.15179243.15871028-.44033326.37100469-.68951295.41595738l.54590502-1.52846355h.5586526l.06956673-.23286728h-.5424314l.20743396-.58650385h-.21561847l-.38707676.58650385-.38363165.06564794zm2.33553096-.52176248.79496718-.74185806V36.558232h-.4275563l-.48908587.82752888zm.22480338 1.63782999h-.13901546c-.17631567.20873306-.36284738.37180028-.55061547.37180028-.1912711 0-.2896895-.11452424-.2896895-.37180028 0-.10568844.01274978-.21114267.03241609-.30943913l1.12999401-.36973585c.22024075-.52256379-.04507506-.7513079-.35581154-.7513079-.53312763 0-1.1404447.89403031-1.1404447 1.67510389 0 .35098224.16801362.54257526.42767383.54257526.30602867 0 .62353871-.2979889.88549537-.78719627m-.38707676-1.12872825c.15076218 0 .2804743.11443653.211026.4044782l-.70126054.16224268c.1215285-.32590068.32669584-.56672088.49023454-.56672088"/>
  <path fill="#29367a" d="M6.65227919 6.48651377c.00228066 0 .00473675-.0011842.00585954-.00232452.01978473-.01058314.03830194-.02210486.0556718-.0370739l-.00703496-.00118418c-.0184865.01263135-.03597742.02561357-.05449024.040644m2.7121509-.90415907c-.00691655.00526307-.01289451.0094165-.01966632.01415326.01045157-.0011842.01966631-.00350871.01966631-.01415326"/>
  <path fill="#2f3192" d="M6.06383326 5.30244179c-.01403922-.0138594.04163083 0 .05552531-.02795125H6.0081641c-.01519271 0-.01519271-.0138594-.01519271-.02766178-.0684185.0138594-.15282311.04181064-.2223894.05561303-.09856488.02766178-.18205679.09744297-.29439993.12629595-.1542358.0556718-.2793559.18193838-.44748707.2375808-.01274977 0-.01274977-.0138594-.01274977-.02766179.01274977-.04298168.0684185-.05567136.09729955-.09744867 0-.01503043 0-.02882843-.01368835-.02882843.11119536-.15426606.26413557-.23787859.40559442-.36299913v-.04152118c.04163082-.05684107.11119535-.08478793.13904485-.15426606.01389448-.04181065.06956672-.0986241.14028167-.12629596-.01389449-.0138594-.04174925-.0138594-.04174925-.04181065-.0555253 0-.11257822.02795125-.1681316-.0138594.02670127-.02561357.0555547-.040644.08696553-.04976488-.01163137-.00232452-.02199522-.00824547-.0314161-.02087682-.01380677-.0267846.02678899-.05917437.0707145-.06947857.05452534-.01415325.12523722-.01415325.16698339-.05567136-.09726973-.01415325-.2097598.02766178-.30829486-.02795124.07059697-.18193842.18317476-.33620462.3500406-.4195189.01495148 0 .04174924 0 .04174924.0138594 0 .06947826-.04174925.12512054-.11119492.14013198.11119492.02795256.22368455.02795256.33602769.08361248-.01392519.02766046-.04162644.0138594-.05681783.0138594.06959655.0418124.15423668.0138594.22368498.06947847-.04162644.04181065-.08337392 0-.12511922 0 .43356232.1265942.89479783.22491961 1.25879343.50430666-.30844222.15426607-.62939693.2237442-.96554216.29322276-.04174925 0-.06944918 0-.11131246-.0138594 0 .0138594 0 .04152118-.01507429.04152118-.05567136 0-.09741666 0-.13904485.02795125-.05678845.02766178-.14028167.04298168-.18190943 0m-.2864799.972403c-.0010526.0011842-.00214908.00232453-.00333327.00350872-.05222712.03707389-.1044231.07418593-.15997649.10657131-.05920331.03356518-.12167543.06034979-.18432342.09037863 0-.00118419-.0010526-.00232452-.00232451-.0035087-.00461834-.00707444-.01377607-.01058315-.02208294-.0059078-.0532271.02766178-.09841751.06594618-.14119393.10657132-.00715338.00707443-.01277609.01263135-.01966631.01853914 0 .00118419-.00140349.00118419-.00140349.00118419 0 .00118419-.00118419.00118419-.00118419.00118419-.00691654.00678496-.01380676.01263135-.02081102.01970578 0 .00118419-.0011842.00232452-.00232452.00232452v.00232452c-.00930247.00912264-.01966631.01941631-.03023191.03239853-.0067718.00795161-.01033315.01263135-.0185216.01970579-.00803494.00584638-.03347307.00584638-.03114417-.01175418v-.00232452c-.00818845.00467974-.01622339.0094165-.02322765.0129252-.00818845.00350872-.01495148.00795162-.02325835.01146033-.00228066-.0011842-.00573235-.0011842-.00918843-.0011842-.00355257 0-.00815336.0011842-.00930246.00350872-.0173681.0138594-.03473621.02795125-.0510754.04298168-.02999945.02649074-.05678844.05567136-.08107791.08567081-.00118419.0011842-.00118419.0011842-.00228066.00232452 0 .0011842-.00118419.00232452-.00228066.00350871-.0011842.00232452-.00346485.0035087-.00473676.00584639-.00118419.00118418-.00228066.0035087-.00346485.00467974 0 .00118418 0 .00118418-.00118419.00232451-.00346485.00467974-.00578937.0094165-.00921474.0138594l-.0011842.0011842c-.00241223.00232451-.00585953.0035087-.01160066.00467973-.00118419-.00232452-.00346485-.00467974-.00578937-.00824546l-.00368414-.00678497c-.0045043-.00707443-.00791652-.01415325-.01263135-.02204784v-.0011842l-.00346485-.00707443c.01496025-.01619707.03014419-.03239853.04522111-.04947278.00118419-.00175436.00118419-.00293855.00228066-.00407888.00346485-.00590779.00930246-.01146032.01389449-.01853914.00806564-.00912264.01622339-.01970578.02428464-.02882842.00241224-.00350871.00597797-.00824547.00827617-.01146032.01504797-.01999964.02999946-.03947297.04392333-.05917437l.00118419-.00118419c.00228066-.00232452.00346485-.00590778.00573235-.0094165.00589024-.00912263.0128945-.01970578.01875405-.03005647.00573235-.0094165.01036384-.0173681.01610497-.02795124 0 0 0-.0011842.00118419-.00232452 0 0 0-.0011842.0012719-.00232452.0011842-.00232452.0011842-.00350871.00228066-.00467974.00461834-.01146032.00921475-.02210487.01266205-.03356518 0-.0011842 0-.00232452.0011842-.00350871.00118418-.00232452.00228065-.0059078.00228065-.00824547.00241224-.00584638.00355257-.01029367.00473676-.01619707.00118419-.0011842.00118419-.00232452.00118419-.00350871.00228066-.00584639.00346485-.01263135.00461834-.02058296.00118419-.00350871 0-.00707444-.0011842-.00824547.0150743-.0267846.03370554-.05210432.05567137-.07654247-.00228066.00232452-.00461834.00232452-.00689023.0035087-.0185216.01263136-.03256081.03122751-.05222712.04532068-.01389449.01146032-.04277554-.00707444-.02425833-.02087682.01150856-.0094165.02081102-.01970578.03117487-.02912228.00118419 0 .00118419-.00118419.00118419-.00232452.02449517-.021811.04530883-.05210432.07186273-.07065968.01633743-.01146032.03023191-.02210486.04289396-.03239854.00241224-.00232452.00473676-.00467974.00700426-.00590779.00806564-.01263135.01966631-.02531971.0314161-.03590724l.00118419-.00118419c.13315724-.1286525.35799-.1227697.53542451-.20608399.06947857-.0267846.15411827.01503043.22368499 0 .04162644 0 .08349147 0 .12638587.02882843-.12638587.0683027-.24232061.14484518-.35719529.21668029m.2504753.11599176c-.00573236.01619707-.02081104.02882842-.03485903.040644.01748653.00467974.03026261.01146032.01863563.021811-.0313854.03035033-.06370806.05917437-.10557177.07418594-.00346485.0011842-.01147786.00232452-.02081103.00350871-.0173681.01619708-.03597742.032688-.05196397.04888815-.01760933.0138594-.0940904.0035087-.07086187-.0173681.03600373-.03152137.06832946-.06623872.1031569-.09744868.02081103-.01853914.04047734-.03590724.05797-.05567136.01045157-.01146032.0185216-.02204785.03011788-.03152136.01163137-.00795161.0857888-.0138594.074189.01298222m-.6490799-2.0943583c-.0150743.02766046-.02896878.02999945-.04186329.05561302-.01495148.02766047-.02770125.04151943-.05670072.05567154-.01263135 0-.02667057 0-.02667057-.01415325.01403922-.05532054.05567136-.11128444.11016467-.12629588.01507429 0 .01507429.01502912.01507429.02912228m-1.1612613.9226512s-.0128945-.01415326-.0128945-.02795125c.18205622-.23758035.32098353-.4625004.44619179-.71274149.18205723-.09862396.33270099-.2411126.4753085-.39184672.23758034-.25259191.49023454-.475161.7834858-.61529293.11248964-.04181197.25265377-.02795257.36399561.0138594-.04174924.05561302-.11134184.04181196-.16813204.08331427-.01380677 0-.02773196 0-.04163083-.0138594.01389449-.0138594.01389449-.02766046.01389449-.04181196-.13913301.15397384-.33499745.2237445-.44757523.4056827-.08337393.14043022-.13892731.32119305-.32095472.36387648-.05567136.01415194.01274977-.04268914-.01392518-.02882974-.43344435.26672645-.74174008.58762107-1.07776781.96563177m2.14072707.30705892c-.0291179 0-.0846397.01503043-.07086231-.0138594.01403921-.0697768.1124905-.0697768.16813204-.09744868.02784599-.01503042.06959567-.04181064.09741622-.02795124.02770125.04181064.06944918.02795124.09856576.05561302-.08349235.08361253-.19598198.04181065-.29325171.08361253m2.1488817 1.00242614c.0799297-.07978232.15994755-.16456456.2398768-.25023538h-.00228066c.1483482-.16928334.29439993-.3291401.46700646-.47634225.05337315-.04649039.10442355-.08802165.15308758-.12158245.01263135-.01415325.01263135-.04181064.02667057-.0559639-.06841894.02795125-.11246069.08361252-.18090857.11157693-.01496026 0-.02885474-.01415325-.01496026-.02795125l.14952624-.11246024h-.0093507c-.01274977 0-.01274977-.01263135-.01274977-.02795125-.18320502-.02649075-.32339766.0986241-.44851776.2110839-.0290872.01268836-.05564197-.01503043-.07071495-.01503043-.20861157.06947856-.36281799.25259191-.57257779.33620444v-.02795125c-.08349147.02795125-.16456895.0777236-.25150553.09744823-.12638543.02766178-.23772771.0138594-.3489222.0138594-.17042805.0173681-.3395899.05444375-.5099004.09037863-.00473677.00118419-.00933317.00232452-.0139252.00467974-.09152904.02444254-.1774345.05801035-.26080843.10421434-.00355257.00232452-.00585954.0035087-.00933317.00590779-.00689022.00824546-.01389448.0173681-.02081102.02444254-.0290872.03239853-.05449024.06240808-.0961215.08331428-.08590547.0441514-.15550202.11952415-.23195721.18193837-.00461834.0035087-.01392519.00590779-.02081103.00707443-.07648502.0718351-.14949597.14484519-.225981.21549917-.00585954.00467974-.02667056.00824547-.04301237.00467974 0 0 .00118419 0 .00118419-.00118419.00241223-.00467974.00585954-.00824546.00815336-.01263135.01266205-.01970578.02440306-.040644.03600373-.05917436.01392519-.02210487.02773196-.0441514.04047734-.0650633.01978473-.02882843.04059576-.05771825.06026382-.08567082.00585954-.00707443.00461834-.01268836 0-.01853914-.00461834-.00467974-.01266205-.00707443-.0185216-.00707443.06841894-.0671216.1506442-.12512054.23413612-.17487403v-.0023245c-.00930247.0035087-.02310923-.00467974-.0162234-.0138594.00933317-.01298222.0162234-.02561357.02440307-.03824492.00241224-.00467974.00241224-.00824547.00355257-.01268837-.00249995-.00350871-.00597796-.00707443-.00945158-.01058314-.02310923.0138594-.0462211.02795125-.0660045.04532067-.0335608.03005647-.06038137.09155974-.11131247.09155974-.00346485 0-.01266205-.00118419-.02081102-.0035087-.00573236-.0011842-.01163137-.00232452-.01519271-.00467975.0012719-.00118418.00241224-.00232451.00241224-.0035087.00118418-.0011842.00118418-.00232452.00228066-.00350871.00118419-.0011842.00118419-.00232452.00232452-.00350871l.00700425-.01175417c.00228067-.00467974.00333328-.00795161.00561394-.01268837.00249995-.0035087.00485517-.00707443.00597796-.01029367.00346485-.00467974.00578937-.01175418.00921475-.01736811.00241223-.0035087.00473675-.00824546.00700425-.01175417.00691655-.01029368.01277609-.02087682.0185216-.0312275.00346485-.00467975.00573235-.01029368.00921474-.01503044.00485518-.00824546.00942089-.0173681.01389449-.02561357.00691654-.01146032 0-.02087681-.00907001-.02444254.02540743-.03356518.05667134-.06241378.09497328-.08331428h-.00368414c.05349025-.02766178.1055709-.06035549.16009403-.09038433.00700426-.00707443.01504797-.0138594.02322765-.01970578-.07889901.0267846-.15190997.06241422-.2226543.11010897 0 0-.0185216.00707443-.02310924.01263135 0 0-.01748652.00590779-.03485901-.01263135-.00228067-.0035087-.00346485-.00707443-.00346485-.01029367.0128945-.02795125.05567136-.04298168.08349147-.07095223.01392518 0 .02784598 0 .02784598.01415325.44745813-.34915727 1.06281234-.26554475 1.58089638-.44748312.04174924-.02766178.08360989-.05561303.12523764-.08331428.07071495-.02795125.12638587-.09744824.2097598-.1392545.11119536-.0844897.1959526-.18311379.23758079-.32207048 0-.01415325-.01380677-.02795125-.01380677-.02795125-.18190986.19577409-.3917872.3500406-.61547219.46132498-.2933688.15426607-.61432309.12629596-.9226482.16810222.01392518-.02912228.04162643-.02912228.0707145-.02912228 0-.04152118.02658286-.05537926.05452533-.08331428h.04277554c.01403922 0 .01403922-.02766178.02794248-.02766178.02773195 0 .06947857-.01415325.0554376-.01415325-.04163083-.05561303-.12615035.04181064-.19571664 0 .02770125-.02766178.01504797-.07065399.04162644-.08331428h.05681783c0-.02912228.02794248-.05684108.02794248-.05684108.20964226-.1263021.4055944-.22374463.60134086-.33502902-.04166152 0-.07050837.04181064-.11237252.0138594.02896877 0 0-.04268783.02896877-.04268783.15308802-.04181064.2793559-.12541264.4336803-.18105505-.0570573 0-.09868286.04181064-.1543244 0 .02655655-.01503043.04174925-.04152118.08360946-.04152118v-.04298168c0-.0138594.01366203-.0138594.02770125-.0138594-.01403922 0-.02770125-.0138594-.02770125-.0138594.01366203-.02795124.05552531-.01415325.08337393-.04181064-.01266205 0-.04174925 0-.04174925-.0138594.04174925-.05561303.11246113-.06977637.18190987-.08478794-.01389449-.02766178-.05552531 0-.05552531-.02766178 0-.01415325.01274977-.01415325.02770125-.01415325h-.02770125c-.0291179-.01268837-.01392519-.04152118-.01392519-.05532093.08325595-.09744823.08325595-.2237442.1251201-.33502898-.01392518 0-.02782405 0-.02782405-.01415193-.13904485.15309104-.36387763.20873345-.57260718.26555085h-.07071539c-.06956628.02795124-.1668654.02795124-.23758034-.0138594-.05567136-.02795125-.08337393-.07065355-.14019264-.1124598-.11119535-.06947853-.2225372-.12512081-.34889324-.16810249-.34995288-.11128452-.71277087-.1669268-1.07803268-.15309078.15435422-.0844897.32466386-.09155391.49038147-.14013198.23769833-.06947826.46126534-.1542662.71400725-.14013194-.04298168-.01415193-.0985355 0-.14142946 0-.19595215-.01415193-.39055038.04268914-.60042772.0844897-.14016413.02766046-.26654956.08331428-.4057124.11128452-.08337392.02882974-.12523764.11245994-.22368498.09862396v-.04298168c.14031106-.1669268.3084431-.33502902.53212765-.34886504.25150553-.04181196.48908588 0 .74059141.02766046.18193925.01415194.3487757.0556715.53198028.09862396.06841894 0 .08349148.11128452.1391624.1251205.0833748.02795257.16686627 0 .25150597.05567154 0-.02766047-.01392519-.05567154 0-.08331428.05564241-.05567154.12626789.0138594.18179145-.01415194.11134272-.06947826-.0972693-.19577422-.1539709-.29439818 0-.01263135.01507429-.02649075.01507429-.02649075.11004625.09744855.19595259.20873307.33487902.27938674.06956716.02766047.23769877.0694783.20861201-.01415193-.06829832-.15397415-.20858-.2802701-.32095208-.4195249v-.05684108c-.02655654 0-.02655654-.01263135-.04174924-.02795257v-.0553208c-.05552531-.02795256-.04186328-.08331428-.07071451-.1251205-.04186328-.07065371-.01277609-.16810221-.04186328-.25259191-.02655654-.08361252-.04162644-.15309082-.0554376-.23787872-.04186327-.23758052-.0973877-.44719076-.12523808-.67122763-.02896877-.26525835.15411827-.4748686.27935591-.71244907.09727017-.16810222.2097598-.33620444.39166923-.44778132.04186327-.16780986.15435422-.30705879.26669692-.4471966.1100467-.13659986.29554728-.22020653.43111851-.28026392C9.51552823.054461 9.69157854 0 9.69157854 0H.03208538v7.40061432h6.85927544c.26543116-.19253467.53198072-.28409442.90286524-.46603235.17616874-.08684667.57728823-.27114158.71288884-.40686412"/>
  <path fill="#ec1c26" d="M20.44443122.00118711H12.4851898s.01504798.00233914.07415919.03473622c.06497426.03473621.14834819.08008042.20172266.10657702.1021271.05356627.20169328.12188082.2665785.22374447.02782406.04298168.06956717.12629594.04174925.18193822-.02785476.06977067-.04174924.18193824-.11237209.20990265-.08360989.04181196-.19480437.04181196-.2932517.02795256-.05564198 0-.11257867-.01415193-.16698339-.02795256.20861158.08449553.40456417.18194407.5447568.37801066.0139252.02766046.06956717.04151986.12626834.04151986.0128945 0 .0128945.02795256.0128945.04181196-.02794248.02766046-.05452533.04181196-.04174925.08449558h.04174925c.07071539-.02766047.05670073-.16780986.15408931-.12629596.07071451.04181196.09856489.14042434.05567136.2099026-.05567136.05567154-.11131245.09715614-.16698338.13895656-.01392518.02912228-.01392518.07065951 0 .09862392.04186328.05561303.05567136.11245998.06956629.16810222.04174924.09715613.0556718.20961607.0974171.30705878.05670072.20990848.11234314.41951872.0985355.62942716 0 .11245998-.05564198.20961611-.0138945.32207605.02770126.11127869.09726974.1948912.15294066.29322276.05681783.08478206.11234314.14042435.15420642.22403687.08337393.14013198.23749219.2790885.16801406.44719072-.04183696.09744854-.1948048.08449553-.29325215.13895656-.08463925.07095192-.01389448.18311949.02784599.25289002.07059697.12629596-.08337393.20990848-.18205635.2514165.02781967.04181065.08349147.02766179.09868242.05561303.01254363.06947857.08337393.11246025.04162644.18193838-.0568174.08361252-.22483277.1265942-.14031018.2514165.0569345.09862409.01966631.20755194-.01380677.30853257-.04183696.12512054-.15420641.18076251-.25159412.20961024-.08464014.02795125-.18193882.02795125-.26543116.0138594-.02896878-.0138594-.0568174-.02882843-.08452172-.02882843-.23758035-.02649075-.4753085-.09715-.71288885-.09715-.06956672.0138594-.14031105.02766178-.19595259.05561303-.06244229.04619785-.119261.09715-.16916185.15072798l-.00118419.00118418c-.01163136.01058315-.02081102.02210487-.0314161.03473622-.00561393.00590779-.01147786.0138594-.01724968.02087681-.00473676.00467974-.00815336.00912264-.01274977.01415326-.04047734.0506425-.07648546.1053959-.11007652.16103217-.00228066.0035087-.00485517.00707443-.00573235.01146032-.00355257.00590778-.00700426.01268836-.01045156.01853913-.04522155.08567126-.08107836.1725232-.10557178.25730543-.0950031.32001745-.05452533.59469099.01274977.66181258.0185216.0173681.46126533.15544149.77085622.29204735.1437553.06358963.2456473.11363522.32913878.1669211h7.81665057V.00143272"/>
  <path fill="#8d8e8c" d="M12.95817203 2.70083407c.05567136.0138594.13904529.0138594.13904529.04181196-.02667057.11099216-.195864.14013781-.27932652.2514165h-.04174925c-.04174924.02795256-.02899947.09715614-.07074433.09715614-.04186328-.01268969-.08349147 0-.12523765.0153212.05681784.05561304.12523765.09744267.20861158.08360665.0151927 0 .0441628.02766047.0441628.05561303 0 0 .01266205 0 .02658285-.01415194.01504797 0 .02794247 0 .02794247.01415194v.05684108c-.04186327.05537913-.11131245.02649075-.16686583.04151986.1123427.02795256.22241921.02795256.32095427 0 .08464014-.02766046 0-.16810222.05567136-.23758048-.02667057 0 0-.04298168-.02667057-.04298168.02667057-.02649075.05564242-.0694783.08337393-.08331428.02678899 0 .06956672-.0138594.08349147-.04181196 0-.02766046-.05670073-.04181196-.04166152-.06947826.08340375-.05684108.15411826-.14013781.1251201-.2237445-.01263135-.04181196-.1251201-.04181196-.19468639-.07065951-.0707145-.02795257-.15420686 0-.23872857.0138594-.06956672 0-.14031106.04181196-.20872955.05684107-.09856489.02795257-.18193882.08360665-.26657895.13895652.0974171-.04151986.19598198-.05537908.30844266-.08331428.08337393 0 .15511912-.02093515.23758035 0"/>
</svg>
