<svg xmlns="http://www.w3.org/2000/svg" width="101" height="30" viewBox="0 0 101 30">
  <path fill="#0071ce" d="M9.1279593 11.023726 8.1112422 7.561695c-.2907382-.9682607-.5814763-2.1796688-.8237576-3.14793h-.0484551c-.241416.9682612-.4836977 2.203032-.7502079 3.14793l-.9682607 3.462031zm-4.1404195 2.76028-1.1620864 4.188876H0L4.9875398 1.6534854h4.8421705L14.889935 17.972882h-3.969957l-1.2589992-4.188876Zm11.6713112-3.752943c0-1.7435617-.04846-2.8814201-.09691-3.8981373h3.171293l.121141 2.178804h.09691c.605703-1.718469 2.058528-2.4453141 3.196386-2.4453141.339194 0 .508792 0 .774436.048455v3.4862593c-.265644-.071819-.58061-.1202756-.992489-.1202756-1.355912 0-2.275717.7259797-2.517998 1.8638377-.04846.242282-.07268.53302-.07268.822892v6.005124h-3.680084zm16.658244 1.113717c0-.193825-.02423-.460335-.04845-.653295-.218053-.9933538-1.016717-1.8162461-2.154575-1.8162461-1.670878 0-2.542227 1.5012801-2.542227 3.3651181 0 2.010072.99249 3.269071 2.517999 3.269071 1.065174 0 1.912293-.726845 2.130347-1.76779.07268-.26651.09691-.532155.09691-.847121zM36.997179.78205021V14.437214c0 1.331684.04846 2.736051.09691 3.535581h-3.268202l-.169598-1.743562h-.04845c-.751073 1.331683-2.179669 2.010072-3.704313 2.010072-2.808736 0-5.061089-2.397723-5.061089-6.077807-.02423-3.9950506 2.470407-6.2949954 5.302506-6.2949954 1.452824 0 2.590683.5087914 3.123702 1.3316833h.04845V.78205021Zm9.976293 9.92688279c0-.8955764-.387651-2.396857-2.081892-2.396857-1.549736 0-2.17967 1.4043682-2.276583 2.396857zM44.625068.97613525l2.081893 3.68008465h-2.517999L41.234858.97613525ZM42.639225 13.226931c.121142 1.525509 1.622423 2.251489 3.341757 2.251489 1.258998 0 2.275715-.168732 3.268205-.483698l.484564 2.49377c-1.210543.483698-2.687597.750207-4.285787.750207-4.019281 0-6.319225-2.348401-6.319225-6.052714 0-3.0025607 1.864702-6.3192227 5.980028-6.3192227 3.825454 0 5.278277 2.9783331 5.278277 5.9073447 0 .629932-.07269 1.186315-.12114 1.452824zm18.692976 4.45504c-.654159.290738-1.888929.557247-3.293297.557247-3.825454 0-6.270767-2.348401-6.270767-6.077807 0-3.4620307 2.372631-6.2949946 6.779558-6.2949946.968263 0 2.034296.1695969 2.808737.460335l-.581481 2.7360515c-.43524-.1938253-1.089399-.3634226-2.057657-.3634226-1.937387 0-3.195523 1.3801397-3.172162 3.3175267 0 2.178804 1.452823 3.316663 3.244843 3.316663.87135 0 1.549736-.145369 2.106125-.387651zM63.221134.78213678h3.680083V7.537467h.04845c.387651-.5087914.871354-.92067 1.452827-1.2105424.557246-.2907382 1.23477-.4603354 1.91316-.4603354 2.3484 0 4.13955 1.6224214 4.13955 5.1813648v6.924928h-3.680079v-6.513049c0-1.5497367-.532157-2.6149107-1.912294-2.6149107-.969129 0-1.573967.6290666-1.840479 1.2832267-.09691.241416-.12114.556383-.12114.822893v7.02184H63.22113Zm21.21072 9.92679622c0-.8955764-.387652-2.396857-2.081893-2.396857-1.549736 0-2.179671 1.4043682-2.27658 2.396857zm-4.334246 2.517998c.12114 1.525509 1.622417 2.251489 3.341756 2.251489 1.258997 0 2.275714-.168732 3.268204-.483698l.484564 2.49377c-1.210542.483698-2.687592.750207-4.285791.750207-4.019276 0-6.319221-2.348401-6.319221-6.052714 0-3.0025607 1.864701-6.3192227 5.980028-6.3192227 3.825454 0 5.278282 2.9783331 5.278282 5.9073447 0 .629932-.07269 1.186315-.12114 1.452824zM.76959043 22.345891H2.4889245v6.136647h3.0120794v1.438114H.76959043ZM10.998634 26.718122H8.2115296v1.798076h3.1124534v1.405233H6.4921953v-7.575626h4.6751707v1.405233H8.2115296v1.5731h2.7871044zm5.487072 1.910391c.146234.03375.381594.03375.595321.03375 1.551467.01125 2.562993-.842794 2.562993-2.652984.01125-1.5731-.910287-2.404645-2.383013-2.404645-.382459 0-.629067.03375-.775301.06749zm-1.719334-6.181642c.629067-.101239 1.449363-.157483 2.314655-.157483 1.438979 0 2.371763.258722 3.102069.809913.786551.584072 1.281497 1.516856 1.281497 2.854596 0 1.449363-.528693 2.44964-1.258999 3.068324C19.407795 29.685034 18.193792 30 16.710682 30c-.887789 0-1.517721-.05624-1.94431-.113353zm12.050481-1.887893-1.382736 1.382736h-1.359373l.944033-1.382736zm.202478 6.159144h-2.787104v1.798077h3.112453v1.404367h-4.832652v-7.574761h4.676035v1.405233h-2.955836v1.5731h2.787104zm3.002042-.831891c.146234.03375.326216.045.572824.045.910286 0 1.472725-.460335 1.472725-1.236501 0-.696559-.483698-1.112764-1.33774-1.112764-.347847 0-.584072.03461-.707809.06749zm-1.696836-3.438668c.527828-.08999 1.269382-.157483 2.314655-.157483 1.05652 0 1.809324.201613 2.31552.606569.483697.382459.809047 1.011526.809047 1.753081 0 .74242-.247473 1.371487-.69656 1.798076-.584072.55119-1.450228.798664-2.461754.798664-.22411 0-.426588-.01125-.584072-.03375v2.708362h-1.696836zm9.6223 4.247975-.471584-1.607711c-.134985-.449086-.26997-1.011526-.382458-1.460612h-.0225c-.112488.449086-.224976 1.022775-.348713 1.460612l-.449086 1.607711zm-1.921812 1.281498-.539077 1.944309h-1.776443l2.31552-7.575626h2.248027l2.348401 7.575626h-1.843071l-.584071-1.944309zm7.307557-2.270439h.674062c.85491 0 1.360238-.427454 1.360238-1.090267 0-.697425-.472448-1.045273-1.258997-1.056521-.415341 0-.651565.03375-.775303.05624zm-1.696835-3.259553c.550325-.08999 1.371485-.157483 2.28091-.157483 1.124014 0 1.910563.168732 2.450503.596186.449952.359096.696561.887789.696561 1.584349 0 .96653-.685311 1.629343-1.336877 1.865568v.03374c.527828.213728.820298.719057 1.011527 1.416483.235359.854042.471583 1.84307.61782 2.134673h-1.753084c-.123733-.21286-.303716-.830678-.52869-1.763462-.201613-.944898-.527829-1.20362-1.22439-1.214869h-.517445v2.978333h-1.696835zm8.127164 1.337394h-2.0343v-1.438979h5.822546v1.438979h-2.068912v6.136647h-1.719334zm9.195364 2.933684h-2.787103v1.798076h3.113319v1.405233h-4.832649v-7.575626h4.675166v1.405233h-2.955836v1.5731h2.787103zm7.835473.303112c-.03377-.910287-.0675-2.011802-.0675-3.112453h-.03458c-.235359.965665-.550325 2.044683-.842795 2.932473l-.92067 2.955835h-1.337742l-.809045-2.932472c-.246608-.888655-.506194-1.967673-.686173-2.955836h-.0225c-.04415 1.021909-.07788 2.190918-.134121 3.134951l-.135849 2.877094h-1.583485l.482833-7.574761h2.280904l.742423 2.528381c.236224.87654.472448 1.821439.64032 2.709228h.03377c.213724-.876541.472449-1.876818.719919-2.720477l.809053-2.517132h2.235908l.417069 7.574761h-1.6752zm7.522239-.303112H71.52888v1.798076h3.113322v1.405233h-4.833518v-7.575626h4.675166v1.405233h-2.95497v1.5731h2.787107zm1.294045 3.202877v-7.574761h2.000555l1.573101 2.775854c.449949.797799.899897 1.741832 1.236497 2.595875h.03377c-.112483-1.000277-.146233-2.023052-.146233-3.157449v-2.21428h1.573963v7.574761h-1.798076L78.46465 26.99891c-.449948-.809048-.944031-1.786827-1.315238-2.674617l-.03377.01125c.045 1.000277.0675 2.068047.0675 3.303683V29.921Zm9.218298-6.136561h-2.034305v-1.438979h5.821685v1.438979h-2.068046v6.136647H84.82833Zm6.48951-17.1121761c.72771 0 1.126611-.9128825 1.126611-2.7282638 0-1.7703863-.386786-2.7005746-1.130936-2.7005746-.687047 0-1.15257.860965-1.150843 2.7204763-.0045 1.8387444.440439 2.7083621 1.155168 2.7083621"/>
  <path fill="#0071ce" d="m100.53172 5.0567632-2.864115 5.9263808h-1.982378l3.291565-6.4239236v-.0242271h-3.661911V2.9956389h4.456251C98.70855 1.2044856 96.760778 0 94.526601 0c-.588403 0-1.156033.08825973-1.694241.24314689C93.873304.92067005 94.3146 2.3449397 94.3146 3.9206355c0 2.4617539-.999412 4.1620519-3.035439 4.1620519-1.575699 0-2.479063-1.0790185-2.822584-2.5932788-.01989.2016133-.03116.4049567-.03116.6108956 0 3.3694452 2.731727 6.1011698 6.101172 6.1011698 3.369446 0 6.101171-2.7317246 6.101171-6.1011698 0-.3616916-.0338-.6991552-.096-1.043541m-12.075016.4328185Zm11.31447-2.494116z"/>
</svg>
