<svg xmlns="http://www.w3.org/2000/svg" width="64.136187" height="50" viewBox="0 0 64.136187 50">
  <path fill="#fff" d="M.76881308 0H25.642175v9.0448592H.76881308Z"/>
  <path fill="#000091" fill-rule="evenodd" d="M11.051822 7.9779724c.0971-.097097.195098-.2013385.29251-.3059424.17407-.2070368.364508-.4014564.567928-.5818103.05888-.053409.12102-.103021.186143-.1486078.0085-.00855.01284-.02139.01709-.034193.0043-.012842.0085-.02564.01709-.034193-.04269.017092-.07688.042732-.111071.068333-.03419.02564-.06837.051284-.111116.068384-.01709 0-.03419-.017048-.01709-.03414l.182616-.1369841c-.0038.0002258-.0077.0002258-.01172.0002258-.01705 0-.01705-.017048-.01705-.034193-.220378-.033873-.390241.117085-.543099.2528942l-.0039.00351c-.02279.011443-.04558 0-.06332-.00887-.0088-.00442-.01642-.00825-.02212-.00825-.134362.044817-.249955.1271706-.366408.2101574h-.000045c-.10578.075392-.212283.1512749-.334253.2000718v-.034193c-.04251.014158-.08452.03311-.126628.0521-.05952.026868-.119256.053817-.181033.067517-.115683.025693-.22169.022434-.325298.019215h-.000181c-.03414-.0011-.06802-.00211-.1018903-.00211-.2089815.025417-.4164708.062367-.6214273.1106635l-.00896.00224-.00408.00101-.00483.00123c-.1108899.02989-.2177999.07295-.3184692.1282557-.00399.00215-.00783.00442-.011667.00675-.0085.010675-.016868.02089-.024741.029575-.032241.041202-.072042.075883-.1172214.1022517-.0743.037807-.1390649.095514-.2033732.1527684-.026548.023649-.053.047258-.08005.069325-.00808.00558-.017592.00864-.027408.00868-.028175.027044-.056217.054175-.084298.081317v.0000448h-.0000452v.0000456c-.063225.061099-.1264473.1222863-.1909368.1820727-.016285.00758-.034509.00972-.052142.00625.00467-.007.00808-.01239.011307-.017816.014382-.024149.028991-.048167.043776-.072083.016548-.026724.033425-.053183.0507-.079367.023294-.035368.047258-.070325.072767-.1040614.00592-.00642.00567-.016373-.000614-.022434-.00642-.00608-.015018-.00932-.023877-.00896.087418-.081767.1836561-.1535828.2869034-.2140924-.011399.00101-.027991-.00808-.01936-.020123.00642-.00887.011943-.018044.017461-.027276.0039-.0065.00783-.012934.012035-.019307.00193-.00508.00373-.010175.0055-.015241-.00268-.00294-.00533-.00567-.008-.00841l-.00492-.00508c-.028132.016693-.054992.03546-.080317.056125-.01239.011167-.023965.025868-.035816.040925-.027224.03464-.0559.071092-.099132.070592-.00878-.0001359-.0175-.0014-.025917-.00368-.00633-.0008333-.012434-.00289-.017952-.00608l.00224-.0039.0025-.00483.0025-.00442.00817-.014702.00442-.00792.00373-.00683.00658-.011851c.00408-.00725.008-.014333.012118-.021658l.00342-.006.00184-.00316.00368-.00625c.00508-.00882.010215-.017548.015373-.026316l.0001359-.0002719.00658-.011127.010535-.018132.0075-.01289.0000907-.0000908.0000448-.000136.0000452-.0000894h.0000456l.00517-.00891.00533-.00896c.00351-.00558.00408-.012526.00149-.018631-.00259-.00608-.00792-.010535-.014382-.011943.031794-.041465.071592-.076158.1170408-.1019807h-.00517c.045042-.022702.090088-.048708.1351311-.074759l.0000447-.0000447.000136-.0000448c.020307-.011759.040658-.023517.060958-.034961.00633-.00542.012482-.010807.018675-.016193l.00958-.00825c-.096193.032518-.1876806.07765-.2720691.1341807-.010132.00399-.019768.00922-.028627.015601-.016048.00351-.032649-.00259-.042649-.015601-.00276-.0036-.00417-.00808-.00408-.012575.00999-.019899.031566-.034048.054583-.049116.016509-.010807.033741-.022118.048025-.03636.017009 0 .034101 0 .034101.017092.3394384-.2651515.7577176-.3262497 1.177445-.3875282.2566923-.0374517.5139743-.0750249.7539783-.1594157l.153809-.1025236c.04396-.017592.08339-.04875.125271-.081808.03957-.03125.08127-.064217.131059-.089138.138115-.094789.240458-.2332209.290567-.3930432-.0018-.012983-.0077-.025009-.01705-.034232-.214814.2315929-.469517.4226665-.752034.564037-.258818.1355824-.5354106.1556171-.8105547.1755158-.1064131.00767-.2126447.015373-.3175196.029759.01714-.03414.051333-.03414.085474-.03414 0-.04061.02139-.059783.047258-.082942.00683-.00608.013974-.012482.021118-.019623h.051333c.0085 0 .01275-.00855.017-.017092.00434-.00855.00855-.017092.017092-.017092.034193 0 .085519-.017092.068425-.017092-.026048-.034733-.0653-.020983-.1088552-.00567-.042193.014741-.088368.030934-.1304267.00567.016509-.016509.021026-.03704.025193-.055758.00442-.019991.00837-.037943.026048-.046759h.068383c.0036-.025917.015601-.049975.034193-.068383.1522701-.091398.2985249-.1707218.4423382-.248688.09832-.053317.195505-.1060057.292737-.1615416-.0199 0-.03717.00767-.05391.015149-.02646.011807-.05142.022934-.08281.00202.01709 0 .01709-.012842.01709-.02564 0-.012842 0-.025693.01709-.025693.107588-.029307.203961-.075433.301962-.1223771.07327-.035048.147431-.0705.22784-.099765-.02342 0-.04491.00608-.06571.01189-.03984.011215-.07738.021798-.122287-.01189.01135-.00567.02085-.013294.03035-.02089.01899-.015193.03799-.03039.07218-.03039v-.051285c0-.017092.01714-.017092.03423-.017092-.01298-.00184-.02501-.00775-.03423-.017092.0089-.017632.02681-.021618.04681-.026048.01872-.00417.03925-.00868.05576-.025193-.01709 0-.05128 0-.05128-.017092.05128-.068383.136714-.085519.222233-.1025692-.0086-.017092-.02569-.017092-.04066-.017092-.01493 0-.02777 0-.02777-.017092s.01709-.017092.03419-.017092h-.03419c-.0265-.01325-.02216-.036768-.0189-.054633.000921-.00517.0018-.0099.0018-.013702.06837-.079775.09117-.1747464.11392-.2696722.0114-.047484.02279-.094971.03989-.1405566-.01709 0-.03419 0-.03419-.017092-.165882.182525-.428499.2522605-.678183.3186047l-.02253.006h-.08543c-.0947.037175-.2009313.030934-.2906111-.017092-.041382-.020715-.070233-.047667-.1017092-.077067-.020535-.019215-.042193-.039434-.06915-.0597-.1336318-.0853438-.2770835-.1542657-.4272733-.2052337-.4243849-.1387477-.8697536-.2023332-1.3160271-.1879512.1228294-.0670254.2539802-.0939771.3866674-.1212473.070417-.014474.1412811-.029035.21156-.0497.042465-.012482.084614-.025368.1264925-.038167.2447534-.074758.4824524-.1473408.7451146-.132778-.034732-.011575-.077333-.0075-.1171758-.0036-.018899.00184-.037215.0036-.053725.0036-.1924741-.01375-.3849937.027807-.5865138.071317-.048933.010583-.098407.021259-.1485618.031298-.085383.017048-.1664705.042693-.2476029.068292-.081225.02564-.162446.051283-.24801.068383-.03939.013158-.071225.03636-.1022973.059017-.04975.036316-.097504.071183-.1712193.0606V4.975932c.1709482-.2052731.3760398-.410184.6495116-.4272792.2599946-.0433245.5078239-.0133815.7640646.0175483h.0001355c.0469.00567.094066.011351.1416877.01664.2191117.023289.436098.063267.6491497.1196184.046983 0 .073308.041289.098815.081317.02094.032833.04133.06485.07217.072542.04097.013658.08204.016417.123055.019132.06155.00408.123101.00817.184516.0492 0-.011399-.0019-.02279-.0038-.03414-.0038-.02279-.0076-.045583.0038-.068383.03857-.038627.08263-.028175.12595-.017908.03347.00792.06653.015693.09628.0008333.09276-.057975.0046-.1474315-.08307-.2363424-.04152-.042101-.08294-.084117-.10492-.1226031.0018-.012934.0077-.024965.01705-.034193.04097.03586.07888.073267.116453.1103473.08787.086649.174069.1716258.293732.2315034.08547.03414.290566.085473.256377-.017048-.05987-.1318294-.161813-.2468341-.264472-.3626991-.04383-.049433-.08774-.098996-.128618-.1500991v-.06811c-.02501 0-.0317-.00918-.0402-.020758-.0031-.00425-.0065-.00887-.01103-.013433V4.053284c-.04301-.021483-.05219-.056483-.06159-.092257-.0056-.021117-.01117-.042508-.02387-.06155-.02858-.047625-.03062-.1058249-.03274-.1657924-.0017-.047708-.0034-.096508-.01854-.1419142-.03089-.094736-.05373-.1919223-.06847-.2905114-.02008-.11401-.04279-.22273-.06498-.3292782h-.000045v-.000045c-.03442-.1650683-.06779-.3248916-.08873-.4910457-.02632-.249954.09936-.4595239.228788-.6753797.03867-.064442.07769-.1294766.113061-.1962732.119618-.2052732.256332-.410229.478518-.5469423.05119-.20468492.187319-.37509063.323445-.54549556l.0012-.001417c.136274-.16697416.363074-.26859328.527374-.34203742.1482-.06580163.299791-.12368828.454142-.17334492H.768813v9.0445868h8.3068887c.2267091-.1632139.4531924-.2667323.7233172-.390195.1176285-.053775.2434881-.1112964.3812411-.1791789.02646-.013026.05707-.027807.09072-.044142l.000316-.000136.000439-.0002258.000182-.0000908c.23996-.1161355.63436-.3070271.779892-.4526498zM8.3380928 6.7365203c.011983-.059967.074392-.077833.1342719-.095017.025509-.00725.050517-.014426.070958-.024649l.00817-.00417.00922-.00492.0000447-.0000443c.03261-.017456.073442-.039342.102207-.025009.01936.029035.044183.036131.068292.043048.018452.00533.036539.010491.051375.025324-.061733.061642-.1357636.0677-.210971.07385-.049925.00408-.1003982.00825-.14811.028715-.00833 0-.018632.00101-.029259.00202-.03311.00325-.06915.00675-.056217-.019132zM6.3383656 5.4717327c-.1534916.3076608-.336695.5995835-.5468975.8716527.00175.012982.00775.025009.017092.034232.4102292-.4615138.7862242-.854604 1.3158463-1.1793591.013118-.0065.00864-.0005263.00202.00837-.010676.014382-.02704.03636.01511.025825.1776389-.0409753.2569621-.1912108.3340239-.3371493.019307-.0366316.0384825-.07295.0590667-.1072263.0794583-.1291161.1935595-.2120117.3087007-.2957218.0830333-.0603749.1666512-.1211565.2382416-.1998915.00232.018767-.00399.037625-.017092.051242.013658.013158.032517.019442.051283.017092.029798-.022292.062767-.031658.094745-.04075.04161-.0118.081542-.023158.1105284-.061775-.1417333-.056759-.2987065-.0628173-.44442-.0171423-.3589446.1709481-.6665155.444419-.9571264.7520803-.1744306.184696-.3589003.3588994-.581087.4785182Zm.8374637-.1538083c-.013434.030526-.037807.0549-.068333.068383-.017092 0-.034193 0-.034193-.017092.015333-.071775.06725-.1302008.1367583-.1538535.017092-.0000447.017092.017092.017092.034193-.00878.017592-.018044.027092-.027092.036316-.0085.00872-.016824.017232-.024241.032066zm.825479 2.5686945c.013794-.012667-.00118-.022118-.022566-.026456.017548-.013342.031881-.030351.042057-.049884.013974-.033557-.076383-.025509-.09045-.015741-.013789.010991-.02614.023741-.036724.037851-.022342.024057-.046083.046767-.07105.068066-.018768.017184-.036991.034868-.055217.052509-.023382.022702-.046758.045358-.071133.066842-.028759.025285.065217.038535.085475.020535.021842-.01936.042873-.039526.063767-.059784.00887-.0003614.017684-.00149.026316-.0036.049117-.020532.093297-.05133.1295224-.090355zM7.7103348 7.67203l-.0201272.0142017c-.0573.040434-.1146881.080908-.1750179.1159557-.054175.031434-.1102118.05725-.1664249.083217-.019675.00904-.03939.018132-.059017.0275-.0005263-.00149-.00132-.00294-.00224-.00417-.0065-.00913-.018724-.012075-.028627-.00683-.062858.035816-.1206583.079867-.1718526.1309688-.008.00758-.015917.015241-.023873.023017-.010807.010627-.018899.018676-.027.026816l-.00285.00285c-.0002711.0002715-.0004066.0005702-.0005263.0008333l-.0004825.0007018c-.012167.012075-.023833.024285-.037215.039974-.00617.00918-.013882.017276-.02279.023833-.010627.00708-.040026.00692-.037307-.012798v-.00333l-.00127.0006579c-.00968.00508-.01936.010175-.029123.014882-.00887.00417-.016776.00882-.024825.013566l-.00184.0011c-.00373-.0014-.00775-.00202-.011798-.00175-.00442.0000443-.00872.00149-.012298.00408-.02089.016373-.041557.033824-.061733.0521-.035908.032333-.0691.067608-.099178.1054184l-.00492.00633-.00508.00658c-.00167.00224-.00368.00483-.00542.00708l-.00167.00211-.0025.0036-.00492.00725-.00408.00617c-.0045.00467-.00945.00708-.014702.00775l-.00285-.00417c-.0014-.00202-.00285-.00399-.00399-.00608l-.00285-.00483-.00193-.00342c-.00517-.00882-.010039-.017952-.01461-.02736l-.0004825-.00101-.00193-.00399-.00206-.0045c.0185-.019899.03636-.040474.053633-.06155l.00342-.00408c.006-.00733.01189-.01461.017776-.021934l.028636-.0366c.00206-.00285.00408-.00542.00617-.00808l.00425-.0055c.018768-.024509.036724-.0483.053458-.072175l.00123-.00184.00298-.00442c.0014-.00211.00285-.00417.00442-.00633.00817-.012075.016057-.024285.023425-.036724.00667-.011167.01289-.022526.018675-.034101l.0014-.0025.00175-.00351c.0004825-.00101.0009211-.00202.00132-.00307.0004825-.0011.0009211-.00224.0014-.00333.006-.01289.011443-.02614.016233-.039842l.00149-.00442.0009211-.00285c.00101-.00276.00202-.00558.00285-.00841.00193-.00617.00373-.012482.00542-.01886.0003167-.0014.0005263-.00285.0009211-.00417l.00149-.006v-.0000461c.00158-.00625.00316-.012482.00442-.019039.0007018-.00399 0-.00808-.00206-.011482.019268-.033057.041965-.063992.06775-.092303-.00127.0007895-.0025.00149-.00382.00215-.00132.0007456-.00276.00149-.00399.00232-.01361.00878-.024693.019452-.035776.030167-.00878.00855-.017592.017048-.027675.024601-.018632.013882-.052908-.00913-.03089-.02564.013658-.010899.026632-.022658.038851-.035232.028851-.033741.057933-.062725.089046-.089499l.00733-.00533c.01664-.012074.031381-.022794.045175-.034825.00175-.00149.00333-.00307.005-.00458l.00241-.00224c.011667-.015241.024417-.029627.038215-.042965l.0007456-.0007017c.0003167-.0003623.0006141-.0006579.00101-.0009211.099991-.096509.2417692-.1314219.38617-.1669232.091806-.02261.1846964-.045492.2685424-.084614.047575-.019039.1004882-.011575.1528123-.00417.041557.00592.082758.011759.1205683.00417.053633-.00525.1074982.00675.1538535.034232-.1184425.064492-.2300569.1354464-.3391828.2048657-.032241.020535-.064217.040882-.096146.060875zm.2858626-1.2260758h.1367582c-.00963.019307-.035632.02225-.053367.024285-.013658.00149-.022382.0025-.014965.00999.051333.05115.1538526.034101.2221863-.0000899.051917-.029215.1117495-.041202.1709026-.034193.017092 0 .017092-.034193.017092-.051242.044092.014017.090448.01986.1366683.017048.4102294-.0854726.8033643-.1709011 1.1793593-.3589444-.3794314-.2918324-.8461014-.4217165-1.3042235-.5492029-.0784167-.0217982-.1565666-.0435482-.2340359-.0660749.017092 0 .034193.00567.051283.011399.034193.011399.068383.022794.1025684-.011399-.046492-.037176-.098092-.044-.1492399-.050783-.042785-.00567-.085293-.011259-.1242315-.03464.00382 0 .00855.0008333.01375.00184.017868.00333.041382.00758.054633-.018899-.091126-.045541-.182253-.060733-.2733806-.075933-.045583-.00758-.091217-.015241-.1368482-.026632.0819-.014741.1403306-.087736.1367583-.1709034 0-.017048-.034193-.017048-.051283-.017048-.2050916.1025232-.3418499.2905209-.4272788.5127081.076342.04364.1595964.038535.2409547.033601.046175-.00285.091761-.00558.1350851.0005702-.038075.037943-.09479.0478-.149421.0573-.019176.00333-.038075.00658-.05585.011083-.052458.013066-.1025688.051242-.085474.085428.00932.012934.023202.02175.038851.024741-.040382.010623-.077292.031566-.1071816.060733.048933.036632.09782.029667.1466623.022658.019535-.00276.039026-.00558.058567-.00558 0 .022789.015193.03039.030434.037991.00758.00382.015193.00758.02089.013294-.074708.027224-.1359889.08235-.1709473.1537627-.020535.051333-.059517.084117-.098453.1169499-.026.02189-.051967.043732-.07245.071091v.051242c-.058117.052275-.1181718.098588-.1774608.1444008-.1153219.089002-.2279302.1758771-.3181981.3000183.017048 0 .017048.017092.017048.03414-.015465.023241-.037943.039482-.059517.055042-.026048.018768-.050742.036539-.06015.064584 0 .01714 0 .034232.01714.034232.1074973-.035816.2008855-.095107.2924648-.1532653.083217-.052825.164978-.1047399.2544775-.1372556.073083-.018316.1363513-.051192.1977206-.083125.053458-.027768.1054631-.054808.1611793-.070733.042693-.00855.089725-.021342.1367131-.034193.047033-.012798.094021-.02564.1367582-.034193 0 .017092 0 .034193.017048.034189zm.7883044 1.5065563c.00132-.00101.00276-.00206.00408-.00316l.00298-.00241c.024741-.017456.047708-.039798.068292-.066483-.0014-.0004386-.00285-.0009211-.00417-.00149-.00132-.0004824-.00259-.00118-.00382-.00175-.022789.023333-.04495.048434-.067342.075392zm3.3340262-1.1215613-.0355.026548c.01962-.000921.0355-.00592.0355-.026548z" clip-rule="evenodd"/>
  <path fill="#e1000f" d="M25.641857 0h-9.729418c.03238.010625.06336.02505832.09235.04296665.07901.04237498.181394.09705079.245477.13065244.131106.060375.243669.15480327.325886.27342655.03419.0512833.08547.15385326.05128.2222324-.03419.0854283-.05128.22218657-.136713.25637572-.102569.0512416-.239327.0512416-.358945.0341417-.06956-.003-.138477-.014475-.205273-.0341417.256331.10252414.495612.22218744.666561.46146894.01709.034192.08543.051242.153853.051242.01709 0 .01709.034192.01709.051283-.03423.034233-.06843.051283-.05133.1025241h.05133c.08543-.034192.06833-.2052282.187998-.1538083.08724.053775.117221.166335.06833.2563766-.06408.061958-.132689.1190758-.205228.1709024-.01709.038033-.01709.081583 0 .1196641.04279.06155.07191.1315116.08543.2052274.05133.1196183.06838.2563766.119663.3759948.06838.2563766.136713.5127532.119618.7691297 0 .1367583-.06838.2563766-.01709.3931349.03419.1367124.119618.2392816.188042.3588998.06829.1025233.136713.1709024.187998.2734716.102478.1709025.290521.3418046.205273.5468971-.05128.1196188-.239282.1025688-.3589.1709477-.102569.085429-.01709.2221416.03414.3076161.08547.153853-.102569.2563762-.222187.30766.03419.051242.102568.03414.119618.068333.01709.085475.102569.1367578.05133.2221876-.06837.1025684-.273471.1538525-.170948.3076608.06837.1196631.02387.2525328-.01705.3760398-.05128.1538074-.187997.2221411-.307661.2563766-.105326.031158-.216533.036991-.324574.017048-.03121-.018899-.06621-.030618-.102524-.03414-.290611-.034232-.581177-.1196635-.871698-.1196635-.08235.012526-.162762.0355-.239282.068333-.07444.054584-.143677.1158192-.206946.1830227l-.002.00215c-.01284.013658-.02514.027491-.03727.041425-.0075.00864-.01474.017461-.02203.026233-.0049.00583-.0098.011715-.01456.017632-.04961.062275-.09456.1281209-.134543.1969977-.0025.00434-.0051.00868-.0076.013066-.0045.00792-.0088.015917-.01321.023873-.05377.09981-.09714.2048657-.129432.3135849-.116181.3913713-.06539.7272071.01619.808701.0227.022702.564129.1898516.941254.3576331.13911.058433.273923.1266285.403401.2040978h9.554219z"/>
  <path fill="gray" d="M16.491084 3.2995644c.06842.017092.170902.017092.170902.051283-.03414.1366683-.239327.1708574-.341851.3076607h-.05115c-.05124.034192-.03414.1196183-.08543.1196183-.05173-.01135-.10578-.00533-.153808.017092.06838.068333.153808.1197091.256331.1025232.02944.010217.04975.037308.05128.068467.01312-.00125.02532-.00733.03419-.017142.01714 0 .03423 0 .03423.017142v.068333c-.05132.068383-.136803.034142-.205227.051283.128798.034192.26429.034192.393043 0 .102615-.034192 0-.2052732.06843-.2906115-.03414 0 0-.051283-.03414-.051283.03414-.034142.06833-.085429.102524-.1025232.04061.00108.0791-.018133.102569-.051283 0-.034142-.06833-.051242-.05128-.085519.102524-.068242.187952-.1708566.153853-.2733807-.01714-.051283-.153853-.051283-.239327-.085473-.08552-.034142-.188042 0-.29052.017092-.08552 0-.170994.051283-.256422.068383-.116408.03975-.225941.097368-.324575.1708574.122377-.044225.248146-.078508.37604-.1025233.102387 0 .189444-.025233.29034 0z"/>
  <path fill="#1e1e1e" d="M0 20.350932h1.3657736l.6060055-1.646164h2.5325606l.6060054 1.646164h1.3657736l-2.3968872-6.331401H2.3968873Zm2.3697531-2.740592.8683063-2.378798.8683063 2.378798Zm7.9004129 1.718522c-1.1939217 0-2.0441389-.93162-2.0441389-2.143631 0-1.21201.8502172-2.143631 2.0441389-2.143631.723588 0 1.293414.352749 1.655209.868306l1.013024-.786903c-.578871-.768813-1.519536-1.284369-2.668233-1.284369-1.9989139 0-3.3646883 1.537626-3.3646883 3.346597 0 1.808973 1.3657744 3.346598 3.3646883 3.346598 1.148697 0 2.089362-.506512 2.668233-1.293415l-1.013024-.777858c-.361795.515557-.931621.868306-1.655209.868306zm3.078417 1.02207h1.365774l.606006-1.646164h2.53256l.606006 1.646164h1.365773l-2.396888-6.331401h-1.682343zm2.369754-2.740592.868306-2.378798.868306 2.378798zm5.219741 2.740592h2.487337c2.007959 0 3.364687-1.456222 3.364687-3.165701 0-1.709478-1.356728-3.1657-3.364687-3.1657h-2.487337zm2.505427-5.164615c1.175831 0 2.026048.868307 2.026048 1.998914 0 1.121562-.850217 1.998914-2.026048 1.998914h-1.221056v-3.997828zm7.135896-1.709477 1.175831-1.221057h-1.320549l-1.022069 1.221057zm-2.414977 6.874092h3.690301v-1.067294h-2.405932v-1.628075h2.044138V16.58827h-2.044138v-1.501446h2.405932v-1.067293h-3.690301zm5.318421 0h1.28437v-4.540519l1.410999 2.369753h.90435l1.410998-2.369753v4.540519h1.284369v-6.331401h-1.600939l-1.546536 2.659188-1.546671-2.659188h-1.60094zm8.198124 0h1.28437v-6.331401h-1.28437zm3.189669 0h3.690301v-1.067294H46.15501v-1.628075h2.044136V16.58827H46.15501v-1.501446h2.405929v-1.067293h-3.690301ZM.79594715 29.848033H3.2832836c2.0079584 0 3.3646876-1.456222 3.3646876-3.1657 0-1.709479-1.3567292-3.165701-3.3646876-3.165701H.79594715Zm2.50542645-5.164614c1.175831 0 2.0260482.868307 2.0260482 1.998914 0 1.121563-.8502172 1.998914-2.0260482 1.998914H2.0803174v-3.997828zm4.7209185 5.164614h3.6903019V28.78074H9.3066617v-1.628075H11.3508v-1.067293H9.3066617v-1.501446h2.4059323v-1.067294H8.0222921Zm10.7139959-1.022069c-1.239145 0-2.134586-.931621-2.134586-2.143631 0-1.212012.850217-2.143632 2.044138-2.143632.723589 0 1.293414.35275 1.655209.868307l1.013024-.786903c-.57887-.768813-1.519536-1.28437-2.668233-1.28437-1.998913 0-3.364687 1.537626-3.364687 3.346598 0 1.808971 1.401953 3.346598 3.455135 3.346598 1.184877 0 2.170767-.506512 2.758682-1.293415v-2.65919h-2.894354v1.094428h1.609985v1.103474c-.361795.343705-.877351.551736-1.474313.551736zm4.322719 1.022069h1.28437v-2.559695h.660275l1.691389 2.559695h1.510491l-1.980823-2.803906c.651229-.29848 1.022068-.868306 1.022068-1.637119 0-1.175832-.859261-1.890376-2.25217-1.890376h-1.9356zm2.00796-5.264107c.542691 0 .859261.325615.859261.804992 0 .515557-.31657.832127-.859261.832127h-.72359v-1.637119zm4.087778 5.264107h3.690302V28.78074h-2.405932v-1.628075h2.044137v-1.067293h-2.044137v-1.501446h2.405932v-1.067294h-3.690302zm5.318468 0h1.284369v-4.576698l2.83095 4.576698h1.646164v-6.331401h-1.28437v4.576699l-2.830949-4.576699h-1.646164zm10.490136-6.512298c-1.998914 0-3.364688 1.537626-3.364688 3.346598 0 1.808971 1.365774 3.346598 3.364688 3.346598 1.989867 0 3.355643-1.537627 3.355643-3.346598 0-1.808972-1.365776-3.346598-3.355643-3.346598zm0 5.490229c-1.193922 0-2.044139-.931621-2.044139-2.143631 0-1.212012.850217-2.143632 2.044139-2.143632 1.184876 0 2.035091.93162 2.035091 2.143632 0 1.21201-.850215 2.143631-2.035091 2.143631zm4.722322 1.022069h1.998912c1.456223 0 2.351665-.705499 2.351665-1.86324 0-.660275-.370842-1.202967-1.040162-1.501447.443198-.289436.678364-.732634.678364-1.24819 0-1.067294-.804991-1.718524-2.125538-1.718524h-1.863241zm1.890372-5.264107c.488425 0 .777859.2623.777859.705499 0 .461287-.289434.723589-.777859.723589h-.606004v-1.429088zm.180899 2.496381c.59696 0 .958754.307524.958754.850217 0 .533646-.361794.850216-.958754.850216h-.786903v-1.700433zm3.732814 2.767726h3.690301v-1.166786h-2.405933v-5.164615h-1.284368zm4.95613 0h3.690301V28.78074h-2.405933v-1.628075h2.044139v-1.067293h-2.044139v-1.501446h2.405933v-1.067294h-3.690301z"/>
  <path fill-rule="evenodd" d="m24.267355 45.993107-.841171.768811h-.217077l.497468-.87735h.56078zm-.606005 2.975757h-.180897c-.226122.271347-.479378.488421-.723589.488421-.253255 0-.379884-.153763-.379884-.488421 0-.135675.01809-.28039.04523-.407017l1.474312-.488425c.289436-.687408-.05427-.98589-.461287-.98589-.696455 0-1.492402 1.221056-1.492402 2.197903 0 .461289.217076.714543.560781.714543.397973-.009.814037-.397973 1.157741-1.031114zm-.506512-1.483359c.198987 0 .370839.153764.280391.506513l-.913531.244211c.144718-.434153.416063-.750724.63314-.750724zm-2.876265.01811h.488422l-.777858 2.134586c-.07236.180873.02714.361772.217077.361772.551736 0 1.212011-.470333 1.465267-1.139653h-.135673c-.198987.28039-.63314.587916-.958755.642184l.714544-1.998911h.732633l.09045-.307527h-.714543l.271345-.768811h-.28039l-.506513.768811-.606005.0814zm-.678365-.407018c.09949 0 .235167.108535.171853.307522l-.877352 2.125543c.226122-.03618.461288-.253254.596961-.452241h.144718c-.208032.533622-.678365.922552-1.085383.922552-.09949 0-.244211-.108539-.171852-.307526l.814037-2.125543c-.226122.03618-.461288.253259-.596961.452245h-.135673c.208032-.542687.714544-.922569 1.139652-.922569Zm.253257-.542693c.180897 0 .334659-.144719.334659-.334662 0-.180894-.153762-.334657-.334659-.334657-.189943 0-.33466.153763-.33466.334657 0 .180899.153762.334662.33466.334662zm-3.952604 1.76375c.198987-.434154.126628-.633145 0-.633145-.108538 0-.235166.117583-.361794.334662h-.135673c.208032-.461289.479378-.922574.777858-.922574.253256 0 .343705.253254.343705.533645v.397973c.04116-.04793.08117-.09497.120297-.140645h.000044c.3821-.448627.673843-.790973 1.010266-.790973.262301 0 .397974.162807.397974.407018 0 .144719-.04522.325613-.144718.515556l-.750724 1.510491c.226122-.03618.461289-.253254.596961-.452241h.135673c-.208032.542666-.714543.922552-1.139652.922552-.189942 0-.29848-.198987-.217077-.361794l.868307-1.673297c.09949-.189943.117583-.31657-.03618-.31657-.208032 0-.696454.343701-.958754.660271l-.569827 1.501447c-.06331.153763-.126624.189943-.271341.189943-.235167 0-.352749-.153763-.244211-.397973zm-.587915-.578873c.09949-.343706.04523-.651232-.217077-.651232-.327107 0-.42954.216175-.746563.884587l-.02225.04704v-.397973c0-.28039-.09045-.533649-.343705-.533649-.29848 0-.569826.461289-.777858.922578h.135674c.144717-.208035.28039-.334662.388929-.334662.126627 0 .198986.198987 0 .63314l-.578872 1.284373c-.108538.24421.009.397973.244212.397973.144717 0 .208031-.03618.271345-.189943l.569826-1.501446c.162807-.198987.307526-.370838.488423-.560781zm-2.858176.253259c.09045-.352749-.0814-.506513-.28039-.506513-.217077 0-.488422.31657-.633141.750724zm.226122.976846h-.180897c-.226122.271347-.479378.488421-.723589.488421-.253256 0-.379884-.153763-.379884-.488421 0-.135675.01809-.28039.04523-.407017l1.474311-.488425c.289436-.687408-.05427-.98589-.461287-.98589-.696454 0-1.492402 1.221056-1.492402 2.197902 0 .46129.217077.714544.560782.714544.397974-.009.814037-.397974 1.157742-1.031114zM9.7865365 47.50362h-.4884222v-.226123l.6060055-.0814.5065122-.768811h.280391l-.271346.768811h.714544l-.09045.307526h-.732634l-.7145441 1.998911c.3256148-.05426.7597681-.361793.9587541-.642184h.135674c-.253256.669294-.9135308 1.139627-1.465267 1.139627-.1899424 0-.2894358-.180899-.2170766-.361794zm-3.0752513 1.655209c0-.660276.732633-1.54667 1.1396521-1.54667.090448 0 .1808965.009.2532556.03618l-.4251081 1.139649c-.2442113.298482-.6240954.660276-.8049922.660276-.099494 0-.1628074-.09045-.1628074-.289434zm2.0170035-2.206946.2261214.01807-.7869027 1.808973c-.1899425.434153-.1085386.63314 0 .63314.1085381 0 .2442113-.126631.3889288-.334662h.1356723c-.2080315.461285-.479377.922574-.7778571.922574-.2532565 0-.4070187-.271346-.3617946-.759767l.018092-.171855-.04925.06874c-.3239889.453145-.6171778.862877-.9185518.862877-.2623016 0-.3979739-.162807-.3979739-.407017 0-1.049206 1.1486968-2.387846 2.2250349-2.387846h.045225zm-2.0712723.786903c.099493-.343706.045225-.651232-.2170767-.651232-.3271073 0-.4295406.216175-.7465632.884587l-.02225.04704v-.397973c0-.28039-.090449-.533649-.3437047-.533649-.2984806 0-.5698265.461289-.777858.922578h.1356732c.1447175-.208035.2803898-.334662.379884-.334662.1266276 0 .1989868.198987 0 .63314l-.5788712 1.293416c-.1085384.244189.00904.397952.2442113.397952.1447175 0 .2080319-.03618.2713459-.189943l.5698256-1.501452c.1628074-.198986.3075258-.370837.4884222-.56078h.5969616zm-3.7264819 1.989868-.054267.162807H.7688155l.05426664-.171851c.65122976-.117584.75976796-.171851 1.03111376-.904487l.5879155-1.573806c.2623016-.732631.2080324-.786903-.361794-.904486l.054267-.162807h2.7405923l-.1628079.87735h-.1989866c0-.524601-.054267-.660272-.5517364-.660272h-.1266283c-.4884223 0-.5517364.07236-.6874089.452241l-.3889265 1.05825h.5698256c.379884 0 .5246023-.235167.6964547-.542693h.1989866l-.4703323 1.284373h-.1989874c.045225-.38893.045225-.542693-.3075249-.542693H2.677278l-.2623007.723587c-.2835566.752987-.2025141.768364.4726389.896346.014067.0026.028358.0054.042917.0082zm1.7908819-10.654865-.8411723.606005v.009h-.2170765l.4974672-.723589h.5607816zm5.8791576 4.242038 1.347684-3.581763-.04522-.05427-.93162.108538v.108538l.180897.135673c.154441.120297.113557.232002-.01461.582941l-.02157.05924-1.031114 2.749637c-.0814.162807.02713.361793.217077.361793.425108 0 .877351-.388928 1.085383-.922574h-.135673c-.144718.198987-.434153.416064-.65123.452242zm6.177639-2.758682.841172-.768812v-.108539h-.560782l-.497467.877351zm.05427 2.197901h.180898c-.33466.642185-.750724 1.031113-1.148697 1.031113-.343705 0-.560782-.253255-.560782-.714543 0-.976845.795948-2.197901 1.492402-2.197901.397973 0 .750723.298481.461288.98589l-1.483357.488423c-.02713.126627-.04523.271346-.04523.407018 0 .33466.126628.488422.379883.488422.244212 0 .497468-.217076.72359-.488422zm-.04522-.976844c.09045-.343706-.0814-.497467-.280391-.497467-.208031 0-.479377.316569-.63314.741678zm-2.659185-.479378h-.488422v-.226121l.606005-.0814.506513-.768813h.28039l-.271346.768813h.714544l-.09045.307525h-.732633l-.714544 1.998914c.325615-.05427.759768-.361794.958755-.642185h.135673c-.253257.66932-.913531 1.139652-1.465267 1.139652-.189942 0-.289435-.180897-.217077-.361794zm-.994935-.108538c.05427-.198987-.07236-.307525-.180896-.307525-.425108 0-.931621.388928-1.139652.922575h.135672c.135674-.198987.370839-.416063.596961-.452242l-.814037 2.125541c-.07236.198987.07236.307524.171852.307524.407018 0 .877351-.388928 1.085383-.922574h-.135673c-.135673.198987-.370839.416064-.596961.452242zm.416064-1.175832c0 .180898-.153762.33466-.334659.33466-.180898 0-.33466-.153762-.33466-.33466 0-.180897.144717-.33466.33466-.33466.180897 0 .334659.153763.334659.33466zm-4.5676537 1.392909c-.4070182 0-1.1396521.886396-1.1396521 1.546671 0 .198986.063317.289434.1718525.289434.1718526 0 .5517366-.361793.7959471-.660274l.425109-1.139652c-.0814-.02713-.1628074-.03618-.2532565-.03618zm1.1034727-.642186-.2261213-.01809-.2532556.253256h-.045225c-1.076339 0-2.2250359 1.338639-2.2250359 2.387843 0 .24421.1356732.407018.397974.407018.3013749 0 .5945638-.409732.9185505-.86288l.04925-.06874-.018092.171852c-.045225.488422.1085382.759768.3617942.759768.2984806 0 .5698265-.461287.777858-.922575h-.1356824c-.1447175.208031-.2803911.334659-.3889292.334659-.1085381 0-.1899416-.198986 0-.63314zm-4.5586085 2.930535c-.3889292.153762-.6602747.334659-.6602747.615049 0 .262303.2442113.370842.7507238.370842.6783638 0 1.0492026-.198987 1.0492026-.461289 0-.117583-.1537622-.171851-.5607804-.307526-.2623017-.0814-.4522432-.153762-.5788713-.217076zm.4522433-1.112518c-.1808978 0-.2442118-.153763-.2442118-.31657 0-.524602.2532565-1.175831.6602747-1.175831.1808973 0 .2442113.153762.2442113.31657-.00904.533646-.2623003 1.175831-.6602742 1.175831zm.3437046.850217c.4974674.153762.8049922.271346.8049922.615052 0 .443197-.8140373.967798-1.7999268.958754-.5698265 0-1.0582487-.153763-1.0582487-.524601 0-.352749.3256148-.642187 1.1215627-.877353-.1085381-.07236-.1537631-.162807-.1537631-.289436 0-.217075.1989876-.388928.5426923-.551736-.3346599-.04523-.5517366-.298481-.5517366-.66932 0-.569825.4703323-1.221056 1.2120113-1.221056.1537622 0 .289435.03619.3979731.108539h.8140374l-.090449.307526h-.479377c.027132.0814.045225.171852.045225.271345 0 .551736-.443198 1.184876-1.1486973 1.221056-.1808973.09949-.2713455.235166-.2713455.343704 0 .127533.1479741.170949.4749454.266372h.000136c.043461.01267.090087.02623.1399692.04116zM3.455136 41.88674c.3527498 0 .361794.153762.3075248.542691h.1989875l.4703322-1.284369H4.232994c-.1718524.307525-.3165699.542691-.6964547.542691h-.7778572l.379884-1.058248c.1356725-.379884.1989866-.452244.6874089-.452244h.3437048c.4974673 0 .5517366.135674.5517366.660275h.1989863l.1628078-.877351H2.1345866l-.054267.162807c.5698264.117584.6240956.171853.361794.904486l-.5879155 1.582851c-.2713458.732633-.379884.786902-1.04015876.904485l-.045225.171853H4.0430532l.5879163-.931621h-.2261214c-.379884.370839-.759768.714544-1.5014469.714544-.8158013 0-.8012388-.0398-.5564847-.712282.015742-.04342.032467-.08909.049975-.137934l.2713458-.723589h.786903zm2.7044131-7.751444c.1808964 0 .3346599-.153763.3346599-.33466s-.1537635-.334659-.3346599-.334659c-.1899425 0-.33466.153762-.33466.334659 0 .189943.1447175.33466.33466.33466zm.7869018 3.437046c.7054993.009 1.8903759-1.293414 1.8903759-2.297393 0-.434153-.1085381-.596962-.4160638-.596962-.3798841 0-.732633.407019-1.0853829.895442l.7597681-2.035094-.045225-.06332-.9316206.108538v.108538l.1808977.135673c.1575157.122512.1118399.245025-.022342.605011l-.013842.03718-.8230825 2.152676c-.072358.180898-.1537631.397974-.1537631.452243 0 .253256.3437047.497467.6602747.497467zm9.7322681-3.21997.841172-.768813v-.108538h-.560781l-.497467.877351zm.05427 2.197901h.180896c-.343703.642186-.759768 1.031114-1.157741 1.022069-.343704 0-.560781-.244211-.560781-.705498 0-.976846.795947-2.197901 1.492402-2.197901.397973 0 .750723.29848.461287.98589l-1.474312.488422c-.02713.126627-.04523.271346-.04523.407018 0 .33466.126628.488423.379884.488423.244212 0 .497467-.217077.72359-.488423zm-.04523-.976844c.09045-.343705-.0814-.497468-.280391-.497468-.217076 0-.488422.31657-.63314.741679zm-2.66823-.479377h-.488421v-.226122l.606006-.08141.506512-.768813h.280391l-.271346.768813h.714544l-.09045.307525h-.732633l-.714544 1.998913c.325615-.05427.759768-.361794.958755-.642184h.135673c-.253257.66932-.913531 1.139652-1.465267 1.139652-.189943 0-.289436-.180897-.217077-.361794zm-.741678.235166c.09949-.343705.04522-.651231-.217077-.651231-.327107 0-.429541.216036-.746563.884678l-.02225.04694v-.397972c0-.280391-.09045-.533648-.343705-.533648-.29848 0-.569826.461288-.777858.922576h.135674c.144717-.208032.28039-.334659.379884-.334659.126628 0 .198986.198986 0 .633139l-.578872 1.284371c-.108538.24421.009.397974.244212.397974.144717 0 .208031-.03618.271345-.189943l.569827-1.501447c.162807-.198986.307525-.370839.488422-.56078zm-2.867221.244211c.09045-.343705-.0814-.497468-.280391-.497468-.217076 0-.4793768.31657-.6331395.741679zm.226122.976844h-.180898c-.226121.271346-.479377.488423-.7235888.488423-.2532556 0-.379884-.153763-.379884-.488423 0-.135672.018092-.280391.045225-.407018l1.4743138-.488422c.289435-.68741-.05427-.98589-.461288-.98589-.6964538 0-1.4924017 1.221055-1.4924017 2.197901 0 .461287.2170767.705498.5607813.705498.397974.009.8140374-.379883 1.1577424-1.022069zm-3.7988412.343705c0 .117583.2080315.253256.3527498.253256.5879156 0 1.1396522-1.058248 1.130607-1.646164 0-.198987-.099493-.280391-.2351657-.280391-.2170775 0-.6150506.325615-.8683071.63314l-.2351657.63314c-.081408.208032-.1447183.370839-.1447183.407019zm-.9497077-2.215991c.1085386 0 .2351657.108539.1808969.307526l-.8683067 2.125541c.2261219-.036184.4612884-.253256.5969607-.452242h.1356732c-.2080315.533647-.6783646.922575-1.0853828.922575-.1085381 0-.2532565-.108539-.1808973-.307525l.8140373-2.125541c-.2261218.036184-.4612884.253255-.5969607.452242h-.1356732c.2080324-.533647.7145436-.922576 1.1396526-.922576Zm-3.7536165-.940665h1.9446449l-.054267.171852c-.6602747.117583-.768813.171853-1.0401587.904487l-.5788714 1.591895c-.2803907.759768-.2080316.850216.2894357.850216.614598 0 1.017637-.446816 1.3695269-.836649.026142-.02894.052008-.05789.07765-.08593h.2261219l-.6421847 1.139655H.7688155l.0542666-.162807c.6512298-.117582.759768-.171852 1.0311138-.904485l.5879155-1.600941c.2623016-.732633.2080324-.786901-.361794-.904485Z" clip-rule="evenodd"/>
</svg>
