<svg xmlns="http://www.w3.org/2000/svg" xml:space="preserve" width="112.5" height="30" viewBox="0 0 112.5 30">
  <g>
    <path fill="#0065a1" d="M5.59992214 15.683263c-1.5455818 0-2.93895344.66171215-3.91362391 1.71585344l.41049128.85792714c.81671345-1.03591586 2.08168338-1.70173286 3.50313263-1.70173286 2.44751315 0 4.43363444 1.9720003 4.45809944 4.4137663l.86859986-.135462c-.09589114-2.8560343-2.44767772-5.15035202-5.3266993-5.15035202m20.35907064.87203144c1.43819743 0 2.716467.68141571 3.53186701 1.73834829l.41246186-.86219572c-.97582029-1.07335243-2.38281987-1.7482003-3.94432887-1.7482003-2.87984272 0-5.23212173 2.2956313-5.32686345 5.15281503l.86859986.135462c.02331429-2.44291544 2.0099293-4.4162293 4.45826359-4.4162293"/>
    <path fill="#0065a1" d="M5.59992214 11.94156913c-2.05672556 0-4.0086937.68010215-5.59992214 1.93324972l.83461087 1.74442372c1.26956747-1.12211871 2.93780405-1.80353443 4.76531127-1.80353443 3.81773316 0 6.94075074 2.97179272 7.18326902 6.72828045l1.85788372-.28980686c-.17618271-2.13668915-1.09239943-4.1219893-2.62550229-5.6552563-1.71371915-1.71355458-3.99210987-2.6573563-6.41565045-2.6573563m20.35907064 1.87410644c1.84326986 0 3.52431387.69307329 4.79782202 1.832433l.835596-1.74655843c-1.5973033-1.27005986-3.5622433-1.96001358-5.63341802-1.96001358-2.42354058 0-4.7019313.94380172-6.41565045 2.65752044-1.53375943 1.53359572-2.4501403 3.51988073-2.62566644 5.65755516l1.85788372.28980686c.24136886-3.75763716 3.36487887-6.73074345 7.18343317-6.73074345"/>
    <path fill="#dbaa00" d="M15.75370332 23.91456575c-.56861272 0-1.029348-.46089943-1.029348-1.029348 0-.5686123.46073528-1.02951215 1.029348-1.02951215.56861271 0 1.029348.46089985 1.029348 1.02951214 0 .56844858-.46073529 1.029348-1.029348 1.029348m0-2.316156L7.50611229 22.8850536l8.24759103 1.286808 8.24791931-1.28664386z"/>
    <path fill="#0065a1" d="m16.11736589 25.11459575-.36221743 1.07696486-.35532129-1.07696486h-1.90073872l1.40798486 4.26812401c.2707603.82049015 1.43015187.82393843 1.70567358.00492429l1.4373763-4.27305001z"/>
    <path fill="#dbaa00" d="m15.75370332 0-3.83054059 3.83776515c-1.12047686 1.12261153-1.40174572 2.83403182-.699477 4.25630226l4.52870402 9.17119631 4.5498853-9.26084788c.68157986-1.3871323.40474457-3.05421944-.688476-4.14678293Zm.00132857 2.05606874 2.72615486 2.72434866c.71622515.71573271.897498 1.80796757.45104786 2.71695986l-3.183129 6.47870188-3.1563493-6.39184202c-.46615415-.94413-.27946243-2.08020558.46434771-2.82532972z"/>
  </g>
  <g fill="#0065a1">
    <path d="M29.37644793 6.65813583c.09523415.01001572.22018758.01477714.37453243.01477714h1.2025753c.45679457 0 .77582828-.00640285.95644457-.01953857l-1.2669403-3.18409908Zm2.40547887-4.61359369 1.81831243 4.4360974c.20754429.50605372.46664615 1.06809815.7789483 1.68596958.11165356.22002343.23332328.44677886.36484456.679938h-2.15901986c.0033 0-.00476143-.03743571-.02446714-.11329585-.04925915-.19046786-.12298329-.44513658-.22199358-.763842l-.182094-.557283c-.09539828-.01625572-.23660743-.03103287-.42395571-.04400487-.17109257-.01346571-.43561329-.01986857-.79356172-.01986857h-.79372414c-.36484458 0-.7096573.01822715-1.03493058.05434929l-.16764471.42871714c-.09851786.23003915-.19703572.47978186-.29555358.74922858l-.09375642.26599843h-1.0547983l.05911072-.11329586c.09211414-.17060014.21854572-.420507.379458-.74922857.18406457-.36468043.359919-.732645.52739957-1.10405744l.25154872-.55711886 1.83358286-4.27830425zm3.923328 2.34136026c0-.38766797-.01839-.91342521-.05434886-1.5771075-.01986857-.33840904-.03612428-.59160005-.04925914-.75924472.34169315.006732.59291357.01001615.75399043.01001615.25302686 0 .62936529-.00328286 1.128687-.01001615-.03612428.43709113-.06387257.93986088-.08374028 1.508145-.00985286.27617855-.01477714.5523571-.01477714.82820722v2.21813058c0 .60473572.01313571 1.11390944.03940714 1.52801272.58815215-.01001571 1.28647972-.04104857 2.09481944-.093756.26961043-.01625571.55859657-.03940714.86777828-.06896271v.877302H35.6016468c.03267429-.36468043.06223029-.84282043.08850172-1.43425629.00985285-.26616257.01510714-.53560929.01510714-.80833972zm5.70243002 0c0-.38766797-.01822714-.91342521-.05434886-1.5771075-.01986857-.33840904-.03612428-.59160005-.04925914-.75924472.34169314.006732.59291357.01001615.75399043.01001615.25302686 0 .62936529-.00328286 1.12868872-.01001615-.03595714.43709113-.06387429.93986088-.08374286 1.508145-.00951428.27617855-.01478571.5523571-.01478571.82820722v2.21813058c0 .60473572.01311428 1.11390944.03938571 1.52801272.58815-.01001571 1.28648144-.04104857 2.09498144-.093756.26944714-.01625571.55843286-.03940714.86761714-.06896271v.877302h-4.78613487c.03267429-.36468043.06223029-.84282043.08850172-1.43425629.00985285-.26616257.01510714-.53560929.01510714-.80833972zm5.70262545-.07873242c0-.38766798-.01821429-.9002895-.05434714-1.53786455-.01988572-.3154215-.03612858-.55711878-.04926-.72459922h1.88267572c-.03925715.39128027-.06912429.87418222-.0885 1.44919843-.01002858.2696107-.01478572.5405349-.01478572.81326534V6.6088767c0 .44365886.01641429.95135443.04942286 1.52325129.01937143.31230171.03745714.55038643.05385428.71458286h-1.88267572c.03265715-.36468043.06222858-.84282043.0885-1.43442044.00985715-.26599842.01508572-.53380285.01508572-.80341371zm3.25807287-.02965372c0-.44677873-.02314286-.95611629-.06896143-1.52801276-.02314286-.30556972-.04466143-.54053495-.06436715-.70489565h4.75168288v.89224385c-.35811-.04269129-.89716715-.08062046-1.61684144-.11345979-.45006428-.01625528-.89027571-.029391-1.32096-.03940714v2.11452292c.65399143-.01297286 1.25019-.03448286 1.78924715-.06420086l.73937571-.044169v.89684144c-.39439714-.02955429-.90866143-.05746886-1.54278857-.08374029l-.9858343-.02955429.00527144 2.54832987c.66351857-.00968571 1.38975857-.04104857 2.1783943-.093756.25647428-.01625571.52887428-.03924429.81835285-.06879857v.887154h-4.78140002c.03612858-.41081957.0642-.88896.08373858-1.43442086.00985714-.26583429.01512857-.53528057.01512857-.80833929zm8.10812145-1.59196732-.22675714.01477757c-.09867857.00656786-.15615.009852-.17273143.009852v2.54832961c.10524857.00656572.2169.00985286.33528857.00985286.34185429 0 .67025143-.04433314.98567143-.132999.38454858-.10869814.66220286-.307212.8331343-.596526.08833714-.15434486.13316142-.34514109.13316142-.57189648 0-.41705914-.11986286-.73576461-.35991857-.95595214-.23972572-.22018749-.60293143-.33364732-1.08927858-.34021518-.13464428 0-.28110428.004926-.43857.01477758m4.57418573 6.12666452c-.08916.03300428-.17766.05927485-.26649.07865014-.17421429.03645-.34497857.05434929-.51245572.05434929-.09852.0033-.21838285 0-.35975571-.00985286-.41739-.06896229-.80341286-.321825-1.15824429-.75891643-.30244714-.36468043-.60292715-.9002893-.90225857-1.606827-.0756943-.14794115-.13644858-.26041544-.18209572-.337752-.04646571-.0770083-.09867857-.14367215-.15795429-.19949872-.06912857-.06239486-.14794285-.11247472-.23644285-.15040415-.08899715-.03776571-.19900715-.06485785-.33020143-.08144143h-.4091743c-.19720285 0-.35023285.00197143-.45860142.00509143v.8132653c0 .47978228.02151429.98583557.06403714 1.51799657.01658572.200484.03955715.43725557.06912429.70982143h-1.89745287c.03265715-.39439972.06222858-.90866315.0885-1.5427903.01002858-.2822537.01478572-.56680628.01478572-.85267242V4.28761554c0-.44710706-.02314286-.95644466-.06879857-1.52817695-.02331429-.29900182-.04433143-.53741516-.06436286-.71474743.36484286 0 .76088572-.00328286 1.18796143-.00968743.20048143-.00312.48815572-.01149386.86268858-.02462957.18061714-.00656786.47321143-.009852.87713571-.009852.45351 0 .85300286.03267514 1.1981443.09835371.34497428.0658428.63527571.17273473.87188143.3205116.50622.3154215.75957428.83132692.75957428 1.54755215 0 .3976842-.15483857.74266106-.46336285 1.03509506-.27322286.25959472-.66910286.46188472-1.1881243.60637758.26961.02298857.50605286.09851785.7096543.22675543.25664142.16107685.44710714.405894.57206142.734451.16731858.41393957.34957286.78863614.54710143 1.12392472.16764858.285702.31558715.49767985.44333143.63560485.15434572.17092843.29276143.28274615.41443286.33512486z"/>
  </g>
  <g fill="#dbaa00">
    <path d="M38.77223196 14.41436886c-.18061628-.17404843-.42707528-.29719586-.739377-.36960643-.23332328-.04942329-.51442757-.07405243-.842985-.07405243h-.36451586v.93657686c0 .75251272.01641857 1.33573843.04909457 1.749678.07897843 0 .19408029.0033.34530515.01001572l.17224243.00509143.18258643-.00509143c.50260543-.01313572.88124271-.13332772 1.13607557-.359919.25434043-.22675543.38175686-.57337415.38175686-1.04002072 0-.36139629-.10656343-.64562057-.32018315-.85267243m-1.853286-3.34681716c-.03940714 0-.07076872-.00145714-.09359186-.00476142v2.30154257h.26107243c.02971714 0 .05599072-.00162857.07897843-.00476142h.093756c.03907714 0 .06896271-.00162858.08866629-.00492429h.05418471c.15106072 0 .31230172-.03448286.48290186-.10344386.23020371-.08883043.417552-.21870986.56188072-.38947414.17421257-.20705186.26123657-.45991457.26123657-.75908058 0-.34809643-.10492157-.61113943-.31558586-.78863571-.20672314-.17733215-.510651-.26616257-.91145486-.26616257-.06567857 0-.11690786.00162857-.15286672.00509142-.15138942.00640286-.25959471.00985286-.32543743.00985286-.01641857.0033-.044169.00476143-.08374028.00476143m-1.75969415 1.64147272c0-.450063-.02315143-.96120643-.06896229-1.53293872-.02315142-.29900186-.044169-.53741529-.06420085-.71491157h.65563628c.15779315 0 .38766815-.00312858.69028244-.00952286.15122485-.00342857.37436785-.00509143.67025014-.00509143.07224643 0 .17749629-.0033.31558586-.00985286.269118-.01313571.49439571-.02118.67501157-.02463.04285715-.0033.10689215-.00492428.19211015-.00492428.09211414 0 .161241.00162857.20705185.00492428.26649086.01658572.51672643.06896272.75185572.15779315.23496514.08866585.43922572.20524543.61360243.34973828.17733214.15122529.31542129.32461672.41410372.52017472.09835328.19539386.14777657.40507286.14777657.62838 0 .41065543-.16583829.75087086-.49767943 1.02031715-.15483729.12495343-.33955843.22659128-.55449172.30556971-.21542571.07881429-.45285386.132999-.71244857.16271872.65415857.04925914 1.16169.193752 1.52292258.43380729.43068728.285702.64562057.71146328.64562057 1.27646357 0 .35482886-.07306757.66466757-.21903814.92918829-.14646343.26452029-.35597786.48224486-.62821586.65300957-.243339.15450858-.53347458.27026743-.869913.34743986-.33709544.07733614-.70768715.11592257-1.11161058.11592257l-.18242229-.00509143c-.56532857-.02939142-1.130493-.044169-1.69549329-.044169h-.99585172c.03628715-.41065543.064365-.88895957.08374029-1.434585.01001571-.26583386.01477714-.53363829.01477714-.80324915zm9.39455275-1.4861143c-.2595943.12331158-.49127572.30146487-.6947143.53478815-.22051714.24974272-.39292285.55449172-.51754714.91424615-.12495428.35991857-.18751285.76334957-.18751285 1.20996386 0 .39128057.04843714.755961.14531142 1.09437.09687858.33857315.23742858.6342913.42165858.88715358.18718285.25959471.41459571.46188514.68256429.606378.26763857.144657.56615143.21854529.89470714.22166529.26928 0 .53396572-.05976772.79356-.17995929.25959429-.11986371.49111286-.294897.69471858-.52477243.21706714-.24990686.38700857-.55367057.51032143-.91194729.12314571-.35827671.18472286-.76548429.18472286-1.22227886 0-.38783229-.04761858-.75169157-.14285143-1.091907-.09523715-.33988672-.23332286-.63642558-.41394-.88961658-.18735-.25943057-.41410286-.46155643-.68026715-.60604929-.26632714-.14482114-.56499857-.22018757-.89700429-.22691957-.26944714 0-.53413286.06173786-.79372714.18488529m2.28233143-.67780329c.47633572.16436057.88715572.40113215 1.23196715.70982143.34826143.30885386.61623.68026629.80357572 1.1137453.18718714.43397142.28094143.91358914.28094143 1.43934642 0 .80521972-.1839 1.48712787-.55203 2.0455603-.33857144.51935357-.80357572.91506729-1.39484573 1.18796186-.54562714.25614643-1.16004857.384384-1.84359857.384384-.56500286 0-1.08484715-.08111314-1.55986715-.24383186-.47485715-.16271871-.88469143-.39686314-1.22983372-.70243286-.34826057-.30868928-.61688614-.67944514-.80587629-1.11161014-.18915471-.43216543-.28356728-.90948472-.28356728-1.43179372 0-.394236.04860214-.76318543.14547771-1.10652044.096876-.34317043.23430857-.65317371.41180486-.92902371.16748057-.263043.37042757-.4963663.60867686-.700134.23808643-.20360358.50194929-.37289015.790935-.50753144.55514572-.263043 1.16973429-.39440014 1.84359858-.39440014.55843286 0 1.07598.08226257 1.55264143.246459m5.0914243 3.28777244c0 .97581986.1527043 1.69385143.45827143 2.15409386.15795858.2364433.3612343.41311886.61130572.529698.24957857.11674372.55038429.17486958.90209572.17486958.64726286 0 1.14165857-.21000729 1.48335-.630843.37453286-.46976615.56204572-1.19600744.56204572-2.1785593v-1.16809414c0-.38126443-.01821429-.89043772-.05435143-1.52817687-.01954286-.31525757-.0363-.55679057-.04942286-.72443528h1.07007c-.04302.446943-.0742157.92984486-.09392142 1.44903429-.01002857.26632671-.01478572.53413114-.01478572.80357786v1.18779771c0 1.24871444-.27782143 2.16066173-.83296714 2.73567816-.26320715.27273-.58388572.47239328-.96367286.59882443-.37945715.12643157-.81556286.18981128-1.30848.18981128-.91703572 0-1.63983001-.149583-2.1690343-.44858485-.4632-.25943058-.78995143-.64233686-.98074715-1.14855472-.15779142-.40408758-.23677285-.921471-.23677285-1.55247815v-1.5477163c0-.4502267-.01624286-.96449014-.04909286-1.54295443-.01988572-.31525757-.03612857-.55679057-.04926-.72443528h1.81388143c-.0363.41082-.06420428.89536371-.08374285 1.45412443-.01002858.26944629-.01478572.54053486-.01478572.81326529zm8.57619432-2.73070287-.22675714.01477715c-.09867858.00657-.15615.00985285-.17273143.00985285v2.54832987c.10524857.00657.2169.00968571.33528857.00968571.34185429 0 .67025143-.04416857.98567143-.13283485.38454857-.10869815.66220286-.30721158.83313429-.596526.08866286-.15434486.13316143-.345141.13316143-.57189644 0-.41705914-.11986286-.73576457-.35991857-.95595214-.23972572-.22018757-.60293144-.33364715-1.08927858-.340215-.13464429 0-.28110429.00492428-.43857.01477714m4.57386001 6.12666473c-.08866714.03300429-.17733428.05927486-.26616428.07865015-.17421429.03645-.34497858.05434886-.51245572.05434886-.09852.0033-.21871286 0-.35975571-.00985286-.41739-.06896229-.80358-.32198915-1.15840715-.758916-.30228429-.36468043-.60309429-.90028972-.90209572-1.60682701-.07569428-.14794114-.13644857-.26041586-.18209571-.33775243-.04646572-.07700829-.09867857-.14367171-.15795429-.19949871-.06912857-.06239486-.14810571-.11247472-.23661-.15040415-.08883-.03776571-.19884-.06485743-.33003429-.08144143h-.40917428c-.19720286 0-.35023286.00197143-.45860143.00509143v.81326529c0 .47978229.02151428.985836.06403714 1.517997.01658571.200484.03955714.43725515.06912429.70982144H58.3399746c.03265714-.39440015.06222857-.90866358.0885-1.5427903.01002857-.28225414.01478572-.56680671.01478572-.85267285v-2.16361715c0-.44710715-.02314286-.956445-.06879858-1.5281773-.02331428-.29900185-.04449428-.53741485-.06436285-.71474743.36484286 0 .76088571-.0033 1.18796143-.00968571.20048143-.00342857.48815572-.01149429.86268857-.02463.18061715-.00657.47321143-.00985286.87713572-.00985286.45351 0 .85300286.03267429 1.1978143.09835372.34514142.06584271.63576856.17273443.87221142.32034728.50622.31558586.7592443.83149115.7592443 1.5477163 0 .39768385-.15450858.74266071-.46319573 1.03509471-.27273.25959472-.66877285.46188515-1.18796143.606378.26961.02298858.50605286.09851786.70982143.22659086.25630715.161241.44694.40605815.5718943.73461558.16731856.41393914.34957285.78863571.54710142 1.12392514.16748143.28570157.31525715.49751529.44333143.63560443.15434572.17092886.29276143.28274658.41443286.33512529zm4.6186843-2.81447443c-.18061714-.17404843-.42707571-.29719586-.73937571-.36960643-.23332286-.04942329-.51459429-.07405243-.84315-.07405243h-.36451715v.93657686c0 .75251272.01658572 1.33573843.04926 1.749678.07881429 0 .19407857.0033.34514143.01001572l.17240572.00509143.18258428-.00509143c.50277-.01313572.88124572-.13332772 1.13574858-.359919.25467-.22675543.38192143-.57337415.38192143-1.04002072 0-.36139629-.10639715-.64562057-.32001857-.85267243m-1.8532843-3.34681758c-.03938571 0-.07093285-.00145715-.09375857-.00476143V13.364332h.26123572c.02974285 0 .05599285-.00162858.07898143-.00476143h.09359142c.03908572 0 .06912429-.00162857.08883-.00492429h.0541843c.15106285 0 .31213713-.03448286.48290142-.10344386.23004-.08883042.41739-.21870985.56204572-.38947414.17404714-.20705186.26090571-.45991457.26090571-.75908057 0-.34809643-.10475571-.61113943-.31558286-.78863572-.20655857-.17733214-.51048857-.26616257-.91145571-.26616257-.06584143 0-.11658.00162857-.15270429.00509143-.15155143.00640285-.25959429.00985285-.32543572.00985285-.0165857.0033-.04416857.00476143-.08373857.00476143m-1.75986 1.64147272c0-.450063-.02297143-.96120643-.06896143-1.53293872-.02297143-.29900186-.04416857-.53741529-.06403714-.71491157h.65563714c.15779143 0 .38766857-.00312857.69028286-.00952286.15089571-.00342857.37420286-.00509143.67024715-.00509143.07224857 0 .17733428-.0033.31525714-.00985286.26928429-.01313571.49472571-.02118.67534286-.02463.04285714-.0033.10672714-.00492428.19243714-.00492428.09178715 0 .16074857.00162857.20688857.00492428.26616.01658572.51656143.06896272.75168858.15779315.23496857.08866586.43955571.20524543.61360286.34973828.17733428.1512253.31542428.32461672.41410714.52017472.09802286.19539386.14777572.40507286.14777572.62838 0 .41065543-.16600286.75087086-.49784572 1.02031715-.15483429.12495343-.33939429.22659129-.55432714.30556971-.21558858.0788143-.4528543.132999-.71244858.16271872.65383286.04925914 1.16169.193752 1.52275715.43380729.43068857.285702.64562143.71146328.64562143 1.27646357 0 .35482886-.0729.66466758-.21903857.9291883-.14629715.26452028-.35597572.48224485-.62838.65300956-.24300858.15450858-.53314286.27026743-.8695843.34743986-.33742285.07733615-.70785.11592257-1.11177428.11592257l-.18242143-.00509142c-.56516572-.02939143-1.13032715-.044169-1.69549286-.044169h-.99568715c.0363-.41065543.06403714-.88895958.08373857-1.434585.00985714-.26583387.01461429-.5336383.01461429-.80324915zM75.4776718 11.222914c-.25959428.12331157-.49127571.30146486-.69471429.53478814-.22051714.24974272-.39259714.55449172-.51754714.91424615-.12495429.35991857-.18735.76334957-.18735 1.20996386 0 .39128057.04843714.755961.14531571 1.09437.09703715.33857315.23759143.6342913.42149143.88715358.18734572.25959471.41492572.46188514.6825643.606378.2678057.144657.56631428.21854529.89487.22166529.26895428 0 .53397-.05976772.79339714-.17995929.25959429-.11986371.49111286-.294897.69471857-.52477243.21723-.24990686.38717572-.55367057.51032143-.91194729.12314572-.35827671.18504858-.76548429.18504858-1.22227886 0-.38783229-.04761429-.75169157-.14285143-1.091907-.09523286-.33988672-.23332286-.63642558-.41410286-.88961658-.18734572-.25943057-.41410286-.46155643-.68026715-.60604929-.26649-.14482114-.56516143-.22018757-.89700429-.22691957-.26944714 0-.53413285.06173786-.79389.18488529m2.2824943-.67780329c.47633571.16436057.88715571.40113215 1.23229714.70982143.34793143.30885386.6159.68026629.80325 1.1137453.18702.43397142.28093715.91358914.28093715 1.43934642 0 .80521972-.18406286 1.48712787-.55202572 2.0455603-.33840857.51935357-.80325.91506729-1.39485 1.18796186-.54546.25614643-1.16004858.384384-1.84376144.384384-.56484 0-1.08468429-.08111314-1.55986715-.24383186-.47469428-.16271871-.88452857-.39686314-1.22950714-.70243286-.34842429-.30868928-.61721143-.67944514-.80604-1.11161014-.18898715-.43216543-.28323858-.90948472-.28323858-1.43179372 0-.394236.04827429-.76318543.14514857-1.10652044.09687858-.34317043.23430858-.65317371.41164286-.92902371.16780715-.263043.37042715-.4963663.60884143-.700134.23792143-.20360358.50194715-.37289015.79093286-.50753144.55498286-.263043 1.16957144-.39440014 1.84343572-.39440014.55843286 0 1.07630572.08226257 1.5528043.246459m8.87651574 6.7183796c-.86728715-.84446272-1.51651715-1.46709601-1.94655-1.86806358-.43709144-.41738786-.94642715-.8856763-1.52834144-1.40486572-.54562286-.47616986-.91359-.77385815-1.10389286-.89207958l.04449857 1.68071572c.02922857.535773.07356 1.13541858.13316143 1.79926544.0225.26287843.03891428.43183671.04876714.50753143l.02001429.17749628h-1.11423858l.0102-.340215.02922857-1.26185057c.00342858-.16748015.0051-.415581.0051-.74413843v-2.2181306c0-.51590572-.01148571-1.0695763-.03432857-1.660848l-.0348-.57682244h.70538572c.80127857.795204 1.48138286 1.4638123 2.0403043 2.005989.55515.5423413 1.07269714 1.03690116 1.55247857 1.48367959.52280143.492918.85924286.79701 1.01030143.91178357l-.05402143-1.912233c-.0297-.67057844-.07208143-1.27334358-.12790714-1.80895287-.02001429-.21690343-.04794429-.44365886-.08390572-.68026629h1.12392858c0 .12495386-.0087.42559757-.02511429.90193158-.0192.43397143-.02922857.91358957-.02922857 1.43934686v2.22289243c0 .60473572.01315714 1.16004815.03938572 1.66593772l.01495714.19243843c.003.11510143.01148571.24136886.02464286.379458zm7.6206386 0c-.86778-.84446272-1.51651715-1.46709601-1.94720573-1.86806358-.43725428-.41738786-.94643143-.8856763-1.52768571-1.40486572-.54562286-.47616986-.91375286-.77385815-1.10454858-.89207958l.04433143 1.68071572c.03004286.535773.07438286 1.13541858.13332857 1.79926544.02314286.26287843.03925714.43183671.04942286.50753143l.01954286.17749628h-1.11374572l.00968571-.340215.0297-1.26185057c.00342857-.16748015.00458572-.415581.00458572-.74413843v-2.2181306c0-.51590572-.01148572-1.0695763-.03432858-1.660848l-.0345-.57682244h.70456715c.80193857.795204 1.48236858 1.4638123 2.0406343 2.005989.5554757.5423413 1.07335285 1.03690116 1.55297143 1.48367959.52214571.492918.85923857.79701 1.01046429.91178357l-.05402143-1.912233c-.0297-.67057844-.07273715-1.27334358-.12873-1.80895287-.0192-.21690343-.04712143-.44365886-.08373858-.68026629h1.1239243c0 .12495386-.00805715.42559757-.02447144.90193158-.02001428.43397143-.02987142.91358957-.02987142 1.43934686v2.22289243c0 .60473572.01311428 1.16004815.03938571 1.66593772l.01495714.19243843c.00342858.11510143.01148572.24136886.02464286.379458zM97.63820902 15.0748c.09523286.01001572.22018714.01477714.37485857.01477714h1.20274286c.4563 0 .77500715-.00640285.95595-.01953857l-1.26677571-3.18442715zm2.4053143-4.61342959 1.81880571 4.4359333c.20688857.50605372.46648286 1.06809815.77894572 1.68596958.11165571.22002343.23316.44677886.36451714.679938h-2.15852572c.003 0-.00527143-.03743571-.02494286-.11329585-.04925571-.19046786-.12314571-.44513658-.22149857-.763842l-.18258857-.557283c-.09556286-.01625572-.23660571-.03103286-.42362572-.04400486-.17125714-.01346572-.43545-.01986858-.79372714-.01986858h-.79339715c-.36517285 0-.70982143.01822715-1.03542429.05434929l-.16731428.42871714c-.09852.23003915-.19752857.47978186-.29604857.74922858l-.09359143.26599843h-1.05479572l.05960143-.11329586c.09162428-.17060014.21805286-.420507.37896428-.74922857.18456-.36468043.36008572-.732645.52789286-1.10405744l.25105715-.55711886 1.83342-4.27814015zm3.9234943 2.26244744c0-.38766814-.01838572-.90012514-.05434715-1.53786472-.02005715-.31542129-.0363-.55679014-.04942715-.724599h1.88300573c-.03938572.39128014-.0687943.874182-.08883 1.44919843-.00968572.26961043-.01495715.54053486-.01495715.8132653v2.30170671c0 .443823.01658572.95135443.04975286 1.5232513.0192.3123017.03745714.55038642.05401714.71458285h-1.88300572c.0327-.36468043.06256286-.84282043.08899715-1.43442043.00951428-.26599843.0147857-.53380286.0147857-.80341372zm3.18370286 3.02645358c.14498571.13464129.31394571.26041586.50769429.376995.19408285.11674372.39588.21788915.60654428.30310715.20376858.08226214.40146.146463.59389715.19227386.19211143.045975.36041143.06896271.50523429.06896271.19686857 0 .38109857-.02298857.55186285-.06896271.17125715-.04581086.31689858-.11165358.43857-.19703572.1215043-.08554629.21526286-.18570643.28126715-.30064371.06584571-.11510186.09819-.2382493.09819-.36960643 0-.15122486-.04827429-.29506115-.14514857-.4313443-.09687857-.13644728-.23595-.27026742-.41673-.40195328-.16091572-.11477314-.35319-.23463643-.57616715-.35975443-.03317143-.01641857-.08226428-.04433314-.14826857-.08374028-.50901-.2694463-.90209572-.49439572-1.17810857-.67517572-.46615715-.29588229-.79340144-.62920115-.98074715-1.00061358-.09868286-.193752-.14777572-.42231343-.14777572-.68535643 0-.26271428.04745143-.51245743.14268429-.74890028.18406286-.46664658.58995857-.78223244 1.21800858-.94642887.31493143-.082098.71261571-.12314742 1.19239714-.12314742.37485858 0 .74791286.04334785 1.11932572.13053642.37108714.087024.72591429.22265058 1.06448572.40671472l-.36008143.83280472c-.06912429-.06567857-.17651143-.135462-.32264572-.20951486-.14629714-.07388829-.30836143-.14186572-.48585857-.20442472-.42378857-.14120871-.75858857-.21197742-1.00504715-.21197742-.33561428 0-.59356714.06748457-.77435143.20212585-.18061285.13480543-.27059571.32691515-.27059571.5766583 0 .11838556.04827428.231681.14515286.34005085.09687428.108534.23726142.22018757.42165428.33528943.19047.11822143.38290715.22347129.57633.31542129.54267.27273043.98288144.51754757 1.32129.73428686.45975001.30245014.78814287.65251671.9858343 1.04987228.10196571.20705186.15286714.44349515.15286714.70982186 0 .33184115-.07158857.62854415-.21476571.88978072-.14285143.26107243-.34235143.483723-.59898858.66778715-.25959857.18422871-.56253857.32379557-.90915857.41902971-.34678286.09539829-.71211858.14301515-1.0965043.14301515-.4604057 0-.91671-.067485-1.37022-.20212586-.52953428-.154509-.95644286-.37141243-1.28204571-.65071072z"/>
  </g>
  <g fill="#63656a">
    <path d="m35.76492353 25.9997299 2.24226772.00656571-.0018.62443929-2.94470015-.00853715.01445142-5.02375673.70243286.00197143zm5.07508458-1.34007344c-.00443142-.13234243-.02660142-.25663928-.06633557-.37289014-.04006285-.11575886-.09884614-.21657515-.176511-.30195772-.07782943-.08538214-.174705-.15303085-.29046386-.20311071-.11575842-.04991615-.25171328-.07520229-.4077-.07553057-.14202985-.00047143-.27585.02397428-.40113171.07323171-.12561043.04942286-.23463686.11657957-.32707972.20130472-.09244243.08488971-.16846543.185214-.22790486.30097243-.05960314.11575842-.09424842.23989114-.10393628.37223357zm.68043044.271581c-.00016415.03792857-.00032829.07569472-.00032829.11362415-.00016457.03792857-.00261429.07569428-.00738857.11345957l-2.67525387-.00771857c.00428572.141045.03595715.27387985.09474129.39834086.05878243.12478928.13776086.23315914.23677157.324945.09901029.09195.21345557.16386814.34349914.215754.12987943.05221457.26829686.07832185.41492443.07881428.22691958.00051429.42346286-.04843757.58930115-.14728414.16583871-.09901029.29621057-.21920229.39128057-.36090386l.46730315.37748786c-.18045172.23792057-.39259372.41279014-.63658972.52460786-.243996.11198186-.51492043.16748057-.812937.16665943-.25548986-.00081429-.49193272-.04400486-.709329-.12987943-.21723215-.08571043-.40392343-.20557414-.55941772-.35975443-.155658-.15434486-.278313-.34021543-.36747172-.55810415-.08915871-.21788871-.13349185-.45925757-.13267071-.72410657.00064286-.26025171.04531843-.500307.133656-.72000172.08833757-.21969514.21082843-.40737171.36763586-.56302971.156972-.15565843.34218557-.27683572.55580528-.36385972.21361972-.08685986.44349472-.13004357.69011786-.12922243.246459.00064286.47042315.04154143.6717283.12249043.20114056.080949.37141242.19752857.51097928.34924586.13940271.15171772.24662314.33545357.32182543.55071514.07520186.2155903.11263843.45810858.11181771.727719m3.49725559 1.10220344.87993.00244286c.30261429.00098571.58306286-.04088572.84117857-.12528215.25795286-.08439685.4806043-.20672314.66795-.36697885.18735-.16025615.33332144-.35860543.43824-.59488415.10459287-.23611457.15746572-.50342657.15828858-.80144315.00085714-.31213757-.05040857-.58667443-.15369-.82344557-.10344429-.23677157-.24826286-.434628-.43479429-.59373472-.18636-.15894214-.40835571-.28028314-.66581571-.36385928-.25762286-.083412-.53774143-.12577457-.84052286-.12659572l-.87976286-.00244285zm-.68979-4.40851202 1.72422857.0049243c.32166.0009857.64315715.04925913.96449143.14482156.32149715.09556243.61195715.24530957.87155144.44940558.25959857.20426057.46944.46500471.62920285.78239657.15992572.31739186.2394.69849214.2380843 1.14297172-.00128572.43052357-.08275287.80292129-.24448715 1.117029-.16173429.31427229-.37305429.57370286-.63379715.77878415-.26074714.20491714-.55203.35794843-.87402.458601-.32199.10081671-.64381286.15073243-.96547715.14974714l-1.72422429-.00476143zm6.80998287 1.04197458-.54611571-.00162857.71211857-1.01982472.80144143.00244286zm.7436443 2.024379c-.0044143-.13234242-.0266143-.25663928-.0663343-.37272642-.0399-.11592258-.09868285-.21673929-.17651142-.30212143-.07782857-.08538215-.17454-.15303129-.29046429-.20311115-.11575714-.04991571-.25154571-.07520185-.4077-.07553014-.14186571-.00047143-.27568286.02397429-.40113.07323129-.12544714.04942328-.23447143.11641543-.32691429.20130514-.09261.08488971-.16863.18537771-.22806857.300972-.05944286.11575886-.09408857.23989114-.10393714.37223357zm.68043.271581c-.00016286.03792858-.00016286.0756943-.00032572.11345958-.00016286.03792857-.00257143.07569471-.00737143.11362414l-2.67509144-.00771857c.00428572.14104457.03578572.27371572.09457715.398505.05878286.12462515.13776.23299457.23677286.32478043.09917571.09195043.21345428.16386815.34366285.21591857.12987858.05188629.26813143.07815772.41475858.07865015.22708714.00064285.42346286-.048438.58930286-.14728415.16600285-.09884657.29637428-.21920228.39144428-.36090385l.46730572.37748743c-.18061714.237921-.39276.41279014-.63675429.52477243-.24399857.11181771-.51492.167316-.81294.16649485-.25532572-.00081428-.49193143-.04400443-.70916143-.12971485-.21739715-.085875-.40392429-.20590243-.55958572-.359919-.15565714-.1541803-.27814714-.340215-.36730714-.5582683-.08932286-.21772457-.13349143-.45909342-.13283143-.72410657.00085714-.26008714.04531714-.50014243.13365428-.71983757.08833715-.21969472.21082715-.40737129.3678-.56286557.15697286-.15582258.3421843-.27699943.55564286-.3638593.21361715-.08702442.44365715-.1302077.69027858-.129387.24645857.00064287.47025857.04154144.67156714.12249087.20130429.08111271.37157572.197364.51097715.34924585.13940143.15188186.24678857.33545358.32199.5508793.07520143.2154257.11247429.457944.11165143.72755485m3.48541715.03201857c.00042857-.15615085-.02284285-.30753985-.06962143-.45433157-.04695857-.14679171-.11772857-.27699986-.21164571-.39095229-.09441429-.11378785-.21132429-.20393185-.35072572-.27059571-.13940143-.06649972-.30129857-.10015972-.48569143-.10065257-.17027143-.00047143-.32544.03218143-.46500428.09802543-.13989858.06584271-.25943143.15533014-.3591.26846142-.09966858.11329543-.1770043.243339-.2318443.3896383-.05484428.14662756-.08242713.30031542-.08292.461064-.00042856.16074814.02627144.3147647.08029287.46139185.05385428.14695586.13053428.27601457.22954714.387504.09900857.11148943.21821571.200484.35761714.26698329.13923857.06666386.29407715.10016014.46451572.10065257.18439286.00064286.34645286-.03316714.48618429-.10147328.13973143-.06797743.25713-.15894215.3522-.272238.09474428-.1131313.16617-.24301072.21394714-.38947415.04778143-.14646343.07175572-.29785243.07224857-.45400329m-2.22371143 3.38540359-.66696858-.0018.01461429-5.0664476.65284286.0018-.00128572.52510072.02117143.00016415c.10902429-.17946686.26862429-.32691558.47896286-.44218115.21033429-.115266.45465857-.17257071.73329857-.17174957.25007143.00064286.4774843.04646743.68273144.13677557.20475.09063643.38142857.216411.52969714.377652.14794286.161241.26205857.34957415.34152857.5650003.07963715.21558985.11920715.446286.11855143.69225256-.00085714.24596615-.04152857.47764758-.12249.69504344-.08078571.21739628-.19473857.40622228-.34136571.56664257-.14679429.16041986-.3241243.28652271-.53199858.37814443-.20787.09162171-.44152286.13710386-.70095429.13628314-.24087428-.00064286-.46730143-.053364-.67911857-.15812143-.21213857-.10442871-.37929-.25171328-.50129143-.44136h-.02134286zm5.45652859-3.29026844c-.16567286-.00047143-.33726.00624-.51442715.01986857-.17749714.01362857-.33857571.04154143-.48273857.08374028-.14449286.04203429-.26402572.10557858-.35909572.19046786-.09474428.08488972-.14219571.19834929-.14268857.34021543-.00033.09933857.01954286.18225814.05960143.24859329.03972857.06633557.09293571.12084857.15910714.163704.06600857.04269.13923858.07241057.21969429.08915871.08046.01691143.16305.02528572.24826714.02561572.31213715.00098571.55252286-.09162172.72098572-.27814929.16863-.186363.25302857-.42149229.25384714-.70538786l.00042858-.17733257zm.16485428-.5741953c.00085715-.250728-.07438285-.4367627-.22544143-.55777542-.15122571-.12117729-.35203714-.18192986-.60276857-.18275057-.18915429-.00047143-.3678.03563143-.53593714.10853357-.16813715.07290343-.30918.16583871-.42297.27913414l-.35351572-.42691071c.16600286-.15549429.36846-.27798472.60769286-.36714343.23907-.08915872.49587428-.13349186.77024571-.13267115.24137143.00064286.45039.03563143.62756143.10475743.17733.06912686.32247858.16288329.43577572.28159715.11313.11854971.19785857.25844528.25417714.419358.05631858.16107685.08423143.33364714.08373858.51820414l-.00428572 1.46873786c-.00033.11362415.003.23315915.00968572.35844086.00672857.12544629.01937142.22823315.03792857.30885386l-.60309429-.0018c-.03741429-.16091229-.05582571-.321825-.05533714-.48273772h-.02134286c-.12347572.17946686-.27897.3185413-.46582714.4172233-.18718286.09884656-.40851858.14794113-.66401144.14712042-.13250571-.00032871-.27075857-.01839-.41492143-.05434929-.14416714-.03595714-.27519428-.09408471-.39325285-.17503328-.11805858-.08062072-.21591858-.18734829-.2935843-.32018315-.07782856-.132507-.11625-.29571814-.11559428-.48979843.00085715-.25548985.06978429-.45761571.20754429-.60621343.13759714-.14859814.31755857-.26156528.54021-.33890185.22232143-.07750072.47321143-.12758058.75267429-.15056786.27897-.02282572.56056714-.03382286.84429857-.03300429zm1.23075-.8042507c-.00441428-.14186572-.01114285-.26714787-.02035714-.37601015l.63166715.0018c.00904286.085218.01594286.18340757.02035714.29440414.00441429.11132529.00638572.20229.00625714.27322286h.02134286c.09523286-.19834929.23414143-.35761972.41656715-.47781172.18242143-.12002743.38700857-.17979514.61425857-.178974.10393714.00016415.19161429.01001572.26254714.02906143l-.03038571.61721443c-.09441429-.02380714-.19605-.03595714-.30491572-.03628714-.16091143-.00051429-.30048.02873571-.41902714.08735229-.11838857.05894657-.21657429.13792542-.29506286.23693571-.07832143.09917486-.13677429.21361972-.17470286.34366329-.03844285.13004357-.05763428.26599843-.05812714.40786414l-.0051 1.76691858-.66696429-.00197143.00771429-2.6396233c.00032571-.08981528-.00214286-.20573828-.00608572-.34776814m4.38125573.18228343-.89405143-.00244286-.00492857 1.74721501c-.00085714.20278286.0366.34793272.11214429.435285.07536857.08751686.19605428.13152172.36156428.13201414.06140572.00016415.12774429-.00624.19867715-.01904571.07093285-.01264286.13497-.03201857.19178143-.05796129l.01971428.54644615c-.08045571.02807571-.16928571.050244-.26616.06666386-.09704143.01625571-.19769571.0243-.30179572.02397428-.31689857-.00098571-.55908857-.08915871-.72640285-.26468486-.16748143-.175362-.25073143-.43824043-.24990858-.78830743l.00527143-1.82356629-.64562143-.00197143.00128572-.54628157.64578428.0018.003-.964983.66007286.00197142-.003.96498258.8942143.00244286zm2.97654001.84615386c-.00428571-.13250657-.02644285-.25663929-.06633428-.37289014-.0399-.11575886-.09868286-.21657515-.17651143-.30195772-.07766572-.08538214-.17454-.15303086-.29030143-.20311071-.11575715-.04991615-.25155-.07520229-.4077-.07569472-.14202858-.00032828-.27568286.02413715-.40129715.07339586-.12544286.04925871-.23447143.11641543-.32707714.20130471-.09228.08488972-.16846715.185214-.22774286.30097243-.05960143.11575843-.09408429.239727-.1041.37223358zm.68043.27141686c0 .03792857-.00016285.07585886-.00033.11362414 0 .03792857-.00257142.07569429-.00737142.11362372l-2.67508716-.00771857c.00441429.141045.03578572.27371571.09457715.39834085.05894571.12478929.13776.23315915.23693571.324945.09900857.09195.21345429.16386815.3435.215754.12971143.05205043.26813143.07832186.41492143.0788143.22692.00051428.42346286-.04843758.58930286-.14728415.16584-.09901029.29621143-.21920229.39128143-.36090386l.46730143.37748786c-.18045.23792057-.39259286.41279014-.63659143.52460786-.24399428.11198185-.51492.167316-.81293571.16665943-.25548858-.00081429-.49193144-.04400486-.70916572-.12971529-.21739286-.08587457-.40392-.20590243-.55941429-.35991857-.15598714-.15434486-.27831429-.34021543-.36747429-.55826829-.08932285-.21772457-.13365428-.45909343-.13283571-.72410657.00085714-.26008758.04532143-.50014286.13365857-.71983758.08833714-.21969514.21082714-.40737171.36763715-.56302971.15696857-.15565843.34218428-.27683572.55580143-.36385972.21345857-.08685986.44349857-.13004357.69012-.12922243.24645857.00047143.47025857.04154143.67172571.12249043.20097858.080949.37141286.197364.51098143.34908172.13923858.15188185.24662143.33545357.32199.55087928.07520143.21559029.11231143.45810858.11148858.72755486m1.59426429-1.55186914c.18718286-.1247893.40835571-.18702.66401143-.18619886.22692.00064285.43134429.053364.61327286.15795686.18160286.10459328.32428714.27765642.42789857.51918943.11411572-.21723172.27305572-.38356286.47682429-.49882886.20343857-.11543015.42609-.17273486.66729429-.17207786.21756.00064286.40441714.03792857.56023714.11165357.15598714.07388829.28587.17240614.38947715.29555357.10360714.12347572.18012428.26780443.22938.43364315.04926.16567414.07356.34317086.07306714.53232514l-.00608571 2.08611644-.66713144-.00197143.0054-1.86609344c.00042858-.13726842-.01101428-.267312-.03432857-.39029528-.02331428-.123147-.06321428-.23200929-.1197-.326751-.05631857-.09474129-.13201286-.17076429-.22642714-.22790443-.09441-.05697643-.21493286-.08571086-.36156-.08620329-.15155143-.00032828-.28159715.03119572-.39045858.09474129-.10919142.06354428-.19818428.14613514-.26682.24760843-.06896142.10163743-.11887714.21608271-.15007714.34366328-.0312.12774472-.04679571.25778829-.04728857.39029529l-.00527143 1.81634143-.66696429-.0018.00591429-2.001063c.00033-.13234243-.01131429-.25302686-.0345-.36188915-.02348572-.10886228-.06338143-.20245414-.11986715-.28061185-.05648142-.07815729-.12971142-.13989515-.21952714-.18521358-.08981571-.04515385-.20081571-.06797742-.33315429-.06830571-.24597-.00081429-.45105.09917486-.61491857.29965886-.16370143.20064814-.24596571.468945-.24695143.80472686l-.00527143 1.78810029-.66680143-.0018.00754286-2.63962287c.00033-.08981571-.00214286-.20573828-.00608571-.34776857-.00445715-.14186571-.01118572-.26714743-.02035715-.37617386l.63166286.00197143c.00921429.08505386.01594286.18094457.02035714.28734386.00445715.10639928.00672858.19522971.00638572.26616257h.02117143c.08571-.17946686.22215428-.331677.40950428-.45646629m7.38826717 1.309734c-.00428571-.13234242-.02644286-.25663928-.06633428-.372726-.0399-.115923-.09868286-.21673928-.17651143-.30212185-.07766572-.08538214-.17454-.15303086-.29030143-.20311072-.11575715-.04991614-.25155-.07520228-.4077-.07553057-.14202858-.00047143-.27568286.02397429-.40129715.07323172-.12544286.04942285-.23447143.11657957-.32707714.20130471-.09228.08488972-.16846715.185214-.22774286.30097243-.05960143.11575843-.09408429.23989114-.1041.37223357zm.68043.271581c0 .03792858-.00016285.07569472-.00033.11362415 0 .03792857-.00257142.07569429-.00737142.11345957l-2.67508716-.00771857c.00441429.141045.03578572.27387986.09457715.39834086.05894571.12478929.13776.23315914.23693571.324945.09900857.09195.21345429.16386815.3435.215754.12971143.05221457.26813143.07832186.41492143.07881429.22692.00047143.42346286-.04843757.58930286-.14728414.16584-.09884615.29621143-.2192023.39128143-.36073972l.46730143.37732372c-.18045.23792057-.39259286.41279014-.63659143.524772-.24399429.11181771-.51492.16731643-.81293572.16649528-.25548857-.00081428-.49193143-.04400485-.70916571-.12987943-.21739286-.08571042-.40392-.20557414-.55941429-.35975443-.15598714-.15434485-.27831429-.34021542-.36747429-.55826828-.08932285-.21772457-.13365428-.45909343-.13283571-.72394243.00085714-.26025172.04532143-.500307.13365857-.72000172.08833714-.21969514.21082714-.40737172.36763714-.56302972.15696858-.15565843.3421843-.27683571.55580143-.36385971.21345858-.08685986.44349858-.13004357.69012-.12922243.24645858.00064286.47025858.04154143.67172572.12249043.20097858.08111314.37141286.19752857.51098143.34924586.13923858.15171771.24662143.33545357.32199.55087928.07520143.21542615.11231143.45794443.11148858.72755486m1.20159-1.64909014c.00921429.085218.01594286.18094457.02035714.28734385.00441429.10639929.00672858.19522972.00638572.26616258h.02117143c.04285714-.08965115.10098-.17355558.17487-.25122086.07323-.07799315.15762857-.14629886.25236857-.20524543.09474429-.05878243.19900714-.10459329.31263-.13743257.11362714-.03267429.23184857-.04893043.35483143-.04860215.21756.00064286.40425.03792857.56023715.11148943.15598714.07388829.28570285.17240657.38947285.295554.10344429.12347572.18012429.26796858.22938429.43364272.04926.16583871.07356.34317086.07290429.53232514l-.00591429 2.08628101-.66713143-.00197143.0054-1.86625758c.00042857-.13710385-.00985714-.26714743-.03068571-.39029485-.021-.12314743-.05976858-.23184558-.1162543-.326751-.05631856-.09474172-.13431-.17076472-.2334857-.22774072-.09933858-.05697643-.22675715-.085875-.3827443-.08620329-.26501142-.00081428-.48174857.09917486-.65037857.29965886-.16846714.20064815-.25319143.46878086-.25401428.80472686l-.00527143 1.7881003-.66696429-.00197144.00754286-2.63962286c.00033-.08981572-.00171429-.20573829-.00591429-.34776857-.00445714-.14186572-.01131428-.26714743-.02052857-.37600972zm4.96645287.56104328-.89405143-.00261428-.00492857 1.74737915c-.00085714.20278285.0366.34776857.11214429.435285.07536857.08751685.19605428.13135714.36156428.13185.06140572.00032828.1277443-.00607715.19867715-.01888286.07093286-.01280571.13497-.03218143.19178143-.05796129l.01971428.54644615c-.08045571.02807571-.16928571.050244-.26616.06666386-.09704143.01609285-.19769571.02413714-.30179571.02397428-.31689858-.00098571-.55908858-.08915871-.72640286-.26468486-.16748143-.17552614-.25073143-.43824043-.24990857-.78830743l.00527142-1.82356629-.64578428-.00197143.00171428-.54628157.64578429.0018.003-.964983.66007286.0018-.003.96498257.89421429.00261429z"/>
  </g>
</svg>
