<svg xmlns="http://www.w3.org/2000/svg" xml:space="preserve" width="43" height="30" viewBox="0 0 43 30">
  <path fill="#ed1c24" d="M43 8.1927203h-8.192721V0H43Z"/>
  <path fill="#fff" d="M42.797462 2.99468h-2.795703V.20250285h-2.202457V2.99468h-2.789488v2.2027942h2.789488V7.99032h2.202457V5.1974742h2.795703z"/>
  <path fill="#ed1c24" d="M.7282776 29.019035H.00011765v-4.249338h.72815998zm2.8172595-1.889669c-.066197-.469257-.3550074-.632057-.6740606-.632057-.3852492 0-.6498663.22312-.73404.632057zm.8187177 1.215223c-.3733206.500171-.854672.764954-1.4684166.764954-.7886434 0-1.5468777-.499663-1.5468777-1.607194 0-1.01092.6498669-1.582829 1.4984909-1.582829.794356 0 1.1255056.475469 1.1858217.566029.24664.34896.300908.872314.306956 1.173051H2.1134108c.084006.475806.3790331.74664.8543365.74664.4937841 0 .6920372-.288811.7825955-.415154zm3.0779624-2.852457v2.810994h.3371983c.6016474 0 .8125012-.03023.9927771-.09661.3071238-.120634.6322256-.385085.6322256-1.269663 0-.397514-.060316-1.047211-.6500348-1.329971-.228831-.10232-.3550076-.10904-.8907948-.114754zm-.7943563-.72228h1.5225163c.367272.0064.8125012.01212 1.2580663.33132.7100145.499497.8183825 1.354.8183825 1.829137 0 .728325-.246809 1.46892-.8726499 1.830143-.4213714.24664-.8666006.252857-1.366266.258565H6.6478609Zm6.4422821-.000086-.650035.800909h-.541835l.300908-.800909zm-.174899 2.359548c-.06603-.469257-.355175-.632057-.674061-.632057-.385081 0-.64953.223115-.733872.632057zm.818718 1.215389c-.373153.5-.854672.764788-1.468417.764788-.788644 0-1.54671-.499497-1.54671-1.607194 0-1.010754.649867-1.582834 1.498323-1.582834.794692 0 1.125674.475474 1.185822.566034.246808.349126.300908.87248.306956 1.173218h-2.226651c.08401.475805.379034.746474.854337.746474.493784 0 .692205-.288646.782595-.415154zm2.030111.08423c.348958 0 .72816-.240595.72816-.920869 0-.752183-.523523-.896171-.740257-.896171-.33115 0-.710351.240925-.722279.884748-.01193.619789.331149.932292.734376.932292m-1.444391-2.41936h.716063v.276885c.114247-.119794.355007-.366937.824598-.366937.884578 0 1.36593.794354 1.36593 1.625 0 .896846-.559645 1.565023-1.36593 1.565023-.415155 0-.67406-.198926-.824598-.337531V30h-.716063zm5.304024 1.510788c-.144321.07225-.30662.12668-.63189.180446-.258736.03646-.601815.09661-.601815.415657 0 .234714.198757.35484.487568.35484.367104 0 .625841-.168177.703966-.349126.04217-.09022.04217-.18028.04217-.271006zm-1.859546-.625675c.0121-.150371.02403-.27688.120296-.451274.288979-.523863 1.00521-.523863 1.197751-.523863.288811 0 .637601.03611.902723.192543.355007.216731.361056.499834.361056.824765v1.59476c0 .228835 0 .307292.132392.4874h-.854672c-.0059-.07174-.01798-.192537-.01798-.234543-.156418.132223-.475639.306789-.890963.306789-.679941 0-1.08888-.421034-1.08888-.938508 0-.151041.03595-.289315.0961-.409778.216734-.433137.680109-.52924.96892-.583503.619961-.126679.66818-.138108.932797-.222617 0-.150537-.01193-.457663-.511426-.457663-.300907 0-.463374.09661-.535451.192372-.07846.09678-.07224.18112-.07224.265291zm3.925645-.885149v.427423c.09039-.156423.288979-.511263.96304-.493451v.740422c-.156419.0061-.42742.01194-.650203.180281-.306788.23488-.312837.542171-.312837 1.041497v1.113411h-.698086v-3.009583zm2.504877.518149v1.35988c0 .373154 0 .535623.34291.535623.108535 0 .198757-.0057.300908-.03629v.608365c-.216566.03595-.361055.04772-.523523.04772-.150369 0-.655915 0-.794356-.366932-.04805-.120468-.04805-.313005-.04805-.613914V26.52769h-.439517v-.518148h.439517v-1.064686h.722111v1.064686h.643818v.518148zm3.226685.60168c-.06603-.469257-.355007-.632057-.673892-.632057-.385249 0-.650035.22312-.734208.632057zm.818718 1.215223c-.373152.500171-.854504.764954-1.468752.764954-.78814 0-1.546374-.499663-1.546374-1.607194 0-1.01092.650203-1.582829 1.498491-1.582829.794188 0 1.125337.475469 1.185654.566029.246639.34896.300739.872314.306955 1.173051h-2.226818c.08417.475806.378865.74664.854337.74664.493616 0 .692373-.288811.782763-.415154zm.579773-2.335052h.71623v.337366c.240592-.300909.668013-.427417.950944-.427417.28293 0 .637769.108194.836526.463537.120296-.168514.433301-.463537.962872-.463537.300739 0 .589886.08451.794356.307291.240928.264617.234711.583669.234711.896337v1.896006h-.716063v-1.661125c0-.282766.042-.758235-.505377-.758235-.228831 0-.415491.126343-.511761.28276-.138442.22312-.156251.463543-.156251.72228v1.41432h-.716231v-1.679103c0-.216903 0-.294857-.02436-.384914-.05427-.199263-.21035-.355343-.463375-.355343-.216734 0-.427252.126343-.553764.348789-.126177.234714-.132225.517645-.132225.812674v1.257897h-.716231zm7.315335 1.119829c-.06636-.469257-.355343-.632057-.674229-.632057-.385081 0-.649866.22312-.733872.632057zm.81855 1.215223c-.373153.500171-.854504.764954-1.468249.764954-.788643 0-1.546878-.499663-1.546878-1.607194 0-1.01092.649699-1.582829 1.498492-1.582829.794187 0 1.125169.475469 1.185653.566029.246472.34896.301076.872314.306956 1.173051h-2.22665c.08401.475806.378865.74664.854168.74664.493784 0 .692206-.288811.782764-.415154zm.57344-2.335052h.72816v.355343c.03611-.05429.108366-.150371.234543-.234708.180783-.132229.457497-.210686.692371-.210686.342915 0 .638109.156246.78848.361051.18632.252857.18632.57796.18632.96892v1.769663h-.716063v-1.534783c0-.222611 0-.373154-.02383-.456988-.0662-.264955-.258903-.403732-.493446-.403732-.23488 0-.451617.138777-.554103.3372-.114246.222446-.114246.529903-.114246.752183v1.30612h-.72816zm4.220937.518149v1.35988c0 .373154 0 .535623.34308.535623.1082 0 .198417-.0057.300737-.03629v.608365c-.216394.03595-.361057.04772-.52352.04772-.150371 0-.655914 0-.794188-.366932-.048229-.12047-.048229-.313007-.048229-.613916V26.52769h-.439514v-.518148H41.026v-1.064686h.722114v1.064686h.643817v.518148z"/>
  <path fill="#ed1c24" d="M.7282776 29.019035H.00011765v-4.249338h.72815998zm2.8172595-1.889669c-.066197-.469257-.3550074-.632057-.6740606-.632057-.3852492 0-.6498663.22312-.73404.632057zm.8187177 1.215223c-.3733206.500171-.854672.764954-1.4684166.764954-.7886434 0-1.5468777-.499663-1.5468777-1.607194 0-1.01092.6498669-1.582829 1.4984909-1.582829.794356 0 1.1255056.475469 1.1858217.566029.24664.34896.300908.872314.306956 1.173051H2.1134108c.084006.475806.3790331.74664.8543365.74664.4937841 0 .6920372-.288811.7825955-.415154zm3.0779624-2.852457v2.810994h.3371983c.6016474 0 .8125012-.03023.9927771-.09661.3071238-.120634.6322256-.385085.6322256-1.269663 0-.397514-.060316-1.047211-.6500348-1.329971-.228831-.10232-.3550076-.10904-.8907948-.114754zm-.7943563-.72228h1.5225163c.367272.0064.8125012.01212 1.2580663.33132.7100145.499497.8183825 1.354.8183825 1.829137 0 .728325-.246809 1.46892-.8726499 1.830143-.4213714.24664-.8666006.252857-1.366266.258565H6.6478609Zm6.4422821-.000086-.650035.800909h-.541835l.300908-.800909zm-.174899 2.359548c-.06603-.469257-.355175-.632057-.674061-.632057-.385081 0-.64953.223115-.733872.632057zm.818718 1.215389c-.373153.5-.854672.764788-1.468417.764788-.788644 0-1.54671-.499497-1.54671-1.607194 0-1.010754.649867-1.582834 1.498323-1.582834.794692 0 1.125674.475474 1.185822.566034.246808.349126.300908.87248.306956 1.173218h-2.226651c.08401.475805.379034.746474.854337.746474.493784 0 .692205-.288646.782595-.415154zm2.030111.08423c.348958 0 .72816-.240595.72816-.920869 0-.752183-.523523-.896171-.740257-.896171-.33115 0-.710351.240925-.722279.884748-.01193.619789.331149.932292.734376.932292m-1.444391-2.41936h.716063v.276885c.114247-.119794.355007-.366937.824598-.366937.884578 0 1.36593.794354 1.36593 1.625 0 .896846-.559645 1.565023-1.36593 1.565023-.415155 0-.67406-.198926-.824598-.337531V30h-.716063zm5.304024 1.510788c-.144321.07225-.30662.12668-.63189.180446-.258736.03646-.601815.09661-.601815.415657 0 .234714.198757.35484.487568.35484.367104 0 .625841-.168177.703966-.349126.04217-.09022.04217-.18028.04217-.271006zm-1.859546-.625675c.0121-.150371.02403-.27688.120296-.451274.288979-.523863 1.00521-.523863 1.197751-.523863.288811 0 .637601.03611.902723.192543.355007.216731.361056.499834.361056.824765v1.59476c0 .228835 0 .307292.132392.4874h-.854672c-.0059-.07174-.01798-.192537-.01798-.234543-.156418.132223-.475639.306789-.890963.306789-.679941 0-1.08888-.421034-1.08888-.938508 0-.151041.03595-.289315.0961-.409778.216734-.433137.680109-.52924.96892-.583503.619961-.126679.66818-.138108.932797-.222617 0-.150537-.01193-.457663-.511426-.457663-.300907 0-.463374.09661-.535451.192372-.07846.09678-.07224.18112-.07224.265291zm3.925645-.885149v.427423c.09039-.156423.288979-.511263.96304-.493451v.740422c-.156419.0061-.42742.01194-.650203.180281-.306788.23488-.312837.542171-.312837 1.041497v1.113411h-.698086v-3.009583zm2.504877.518149v1.35988c0 .373154 0 .535623.34291.535623.108535 0 .198757-.0057.300908-.03629v.608365c-.216566.03595-.361055.04772-.523523.04772-.150369 0-.655915 0-.794356-.366932-.04805-.120468-.04805-.313005-.04805-.613914V26.52769h-.439517v-.518148h.439517v-1.064686h.722111v1.064686h.643818v.518148zm3.226685.60168c-.06603-.469257-.355007-.632057-.673892-.632057-.385249 0-.650035.22312-.734208.632057zm.818718 1.215223c-.373152.500171-.854504.764954-1.468752.764954-.78814 0-1.546374-.499663-1.546374-1.607194 0-1.01092.650203-1.582829 1.498491-1.582829.794188 0 1.125337.475469 1.185654.566029.246639.34896.300739.872314.306955 1.173051h-2.226818c.08417.475806.378865.74664.854337.74664.493616 0 .692373-.288811.782763-.415154zm.579773-2.335052h.71623v.337366c.240592-.300909.668013-.427417.950944-.427417.28293 0 .637769.108194.836526.463537.120296-.168514.433301-.463537.962872-.463537.300739 0 .589886.08451.794356.307291.240928.264617.234711.583669.234711.896337v1.896006h-.716063v-1.661125c0-.282766.042-.758235-.505377-.758235-.228831 0-.415491.126343-.511761.28276-.138442.22312-.156251.463543-.156251.72228v1.41432h-.716231v-1.679103c0-.216903 0-.294857-.02436-.384914-.05427-.199263-.21035-.355343-.463375-.355343-.216734 0-.427252.126343-.553764.348789-.126177.234714-.132225.517645-.132225.812674v1.257897h-.716231zm7.315335 1.119829c-.06636-.469257-.355343-.632057-.674229-.632057-.385081 0-.649866.22312-.733872.632057zm.81855 1.215223c-.373153.500171-.854504.764954-1.468249.764954-.788643 0-1.546878-.499663-1.546878-1.607194 0-1.01092.649699-1.582829 1.498492-1.582829.794187 0 1.125169.475469 1.185653.566029.246472.34896.301076.872314.306956 1.173051h-2.22665c.08401.475806.378865.74664.854168.74664.493784 0 .692206-.288811.782764-.415154zm.57344-2.335052h.72816v.355343c.03611-.05429.108366-.150371.234543-.234708.180783-.132229.457497-.210686.692371-.210686.342915 0 .638109.156246.78848.361051.18632.252857.18632.57796.18632.96892v1.769663h-.716063v-1.534783c0-.222611 0-.373154-.02383-.456988-.0662-.264955-.258903-.403732-.493446-.403732-.23488 0-.451617.138777-.554103.3372-.114246.222446-.114246.529903-.114246.752183v1.30612h-.72816zm4.220937.518149v1.35988c0 .373154 0 .535623.34308.535623.1082 0 .198417-.0057.300737-.03629v.608365c-.216394.03595-.361057.04772-.52352.04772-.150371 0-.655914 0-.794188-.366932-.048229-.12047-.048229-.313007-.048229-.613916V26.52769h-.439514v-.518148H41.026v-1.064686h.722114v1.064686h.643817v.518148zM-7e-8 4.424755 1.5964411 2.82932v4.482035h.02604c.3528228-.459178.9944571-.811663 1.8973485-.811663 1.12433 0 2.4201988.470931 2.4201988 2.393988v4.384246h-1.596273v-3.92608c0-.916166-.3664321-1.308131-1.1777572-1.308131-1.2031269 0-1.5695588 1.020331-1.5695588 1.831651v3.40256H-7e-8ZM4.8552503 17.666949c-.1965733-.432463-.7202635-.94204-1.6621332-.94204-.7456332-.01291-1.215896.24832-1.215896.641468 0 1.151212 4.1744021.169692 4.1744021 2.668857 0 1.595766-1.4272535 2.316201-2.944225 2.316201-1.5572948 0-2.61710798-.536463-3.20615484-1.204303l1.20363084-.928429c.365928.53612 1.0598137.823926 1.9104537.823926.7589058 0 1.2820919-.419023 1.2820919-.772686 0-1.124663-4.09476501-.195063-4.09476501-2.707331 0-1.492103 1.29519711-2.146509 2.93011251-2.146509 1.582832 0 2.4205357.810989 2.7347159 1.203297zM26.962647 18.88404c0 1.975137-1.243114 3.466406-3.388951 3.466406s-3.388446-1.491269-3.388446-3.466406c0-1.975977 1.242609-3.467914 3.388446-3.467914s3.388951 1.491937 3.388951 3.467914m-5.103167 0c0 1.032932.576277 2.002017 1.714216 2.002017 1.138107 0 1.713545-.969085 1.713545-2.002017 0-1.033605-.575438-2.002354-1.713545-2.002354-1.137939 0-1.714216.968749-1.714216 2.002354m8.645024-7.106183c-.262265.110383-.58451.190189-.993281.190189-.863072 0-1.688006-.640629-1.714048-1.622149h4.893153c0-2.367777-.968751-3.845937-3.179105-3.845937-2.146173 0-3.388446 1.491263-3.388446 3.467577 0 1.777892 1.008066 3.159783 2.773862 3.418858zm-.993281-3.969765c1.073255 0 1.504707.955645 1.504707 1.308302h-3.218755c.170531-.706823.784443-1.308302 1.714048-1.308302m5.770272 12.886651c-.262937.110217-.58451.191366-.994457.191366-.862401 0-1.687334-.640966-1.712872-1.623492h4.892314c0-2.368285-.96808-3.846611-3.179442-3.846611-2.144493 0-3.388447 1.492103-3.388447 3.46808 0 1.778229 1.009243 3.158777 2.774367 3.418017zm-.994457-3.969932c1.073423 0 1.504875.954972 1.504875 1.307966h-3.217747c.169691-.706823.784275-1.307966 1.712872-1.307966M13.043587 12.14152c0 .680109.156419.967915.248153 1.112737h-1.687335c-.105007-.15776-.156923-.432628-.156923-.60316-.615088.497652-1.335183.759915-2.1587733.759915-1.2562183 0-2.2506764-.798389-2.2506764-2.081492 0-1.295531 1.0329322-1.871137 2.0144529-2.06704l.6676758-.130709c.57527-.117274 1.321071-.248822 1.727321-.392474v-.196405c0-.654234-.563172-.837029-1.256554-.837029-.928933 0-1.2300088.273857-1.2300088.994623l-1.595601-.06603c0-1.556286 1.3729865-2.158943 2.8256098-2.158943 1.425742 0 2.852659.288309 2.852659 2.172383zm-1.596105-2.19876c-.20951.104503-.470935.182966-.759242.235046l-.876681.183303c-.6016475.118445-1.098792.288302-1.098792.91616 0 .497651.457494.824937 1.0329317.824937.7463053 0 1.7017833-.3666 1.7017833-1.21724zm1.625306 11.114583c0 .681114.15625.96892.248153 1.113577h-1.687335c-.104672-.157594-.157091-.432463-.157091-.60316-.614584.497652-1.335184.759075-2.158606.759075-1.2560504 0-2.250844-.797212-2.250844-2.080481 0-1.2952 1.0339402-1.871645 2.0147885-2.067714l.6678442-.131217c.5754373-.117269 1.3209033-.247309 1.7268173-.391297v-.196069c0-.654571-.563173-.837531-1.256218-.837531-.9291017 0-1.230177.273857-1.230177.994286l-1.5952651-.06603c0-1.556286 1.3729861-2.159446 2.8254421-2.159446 1.425741 0 2.852491.287806 2.852491 2.173223zm-1.596273-2.197583c-.209174.104332-.470767.18212-.75941.235383l-.8761777.183297c-.6013115.117103-1.0989601.287806-1.0989601.914486 0 .498657.4578305.825777 1.0337722.825777.7452976 0 1.7007756-.365257 1.7007756-1.21808zm2.284648-3.287051h1.688343l1.321238 4.579983h.02638l1.321575-4.579983h1.688511l-2.185993 6.620977H15.94665Zm6.71273-2.294811h-1.59661v-.655412h-.02571c-.353495.458337-.994793.812166-1.897349.812166-1.124497 0-2.42003-.471103-2.42003-2.395001V6.65692h1.595937v3.925406c0 .916668.366264 1.308977 1.177757 1.308977 1.203127 0 1.569391-.877188 1.569391-1.675577V6.65692h1.596609zm9.23518 7.692822v-3.509583H28.1128v5.106023zm-7.040049-9.06176c0 .630715.175404 1.097114.628025 1.3582l1.241434-1.241937c-.22127-.123149-.272514-.365423-.272514-.719423V7.957006h1.425574V6.805795h-1.425574V3.35972l-1.596945 1.596777v1.849298h-.967743v1.151211h.967743zm7.04015 2.879874h-1.596441v1.596109h1.596441z"/>
</svg>
